<?xml version="1.0" encoding="UTF-8" standalone="no"?>
<svg
   xmlns:dc="http://purl.org/dc/elements/1.1/"
   xmlns:cc="http://creativecommons.org/ns#"
   xmlns:rdf="http://www.w3.org/1999/02/22-rdf-syntax-ns#"
   xmlns:svg="http://www.w3.org/2000/svg"
   xmlns="http://www.w3.org/2000/svg"
   version="1.1"
   id="svg2"
   xml:space="preserve"
   width="647.16699"
   height="750.97699"
   viewBox="0 0 647.16699 750.97701"><metadata
     id="metadata8"><rdf:RDF><cc:Work
         rdf:about=""><dc:format>image/svg+xml</dc:format><dc:type
           rdf:resource="http://purl.org/dc/dcmitype/StillImage" /><dc:title></dc:title></cc:Work></rdf:RDF></metadata><defs
     id="defs6"><clipPath
       clipPathUnits="userSpaceOnUse"
       id="clipPath20"><path
         d="m 0,790.889 900,0 L 900,0 0,0 Z"
         id="path18" /></clipPath></defs><g
     id="g16"
     clip-path="url(#clipPath20)"
     transform="matrix(1.3333333,0,0,-1.3333333,-321.96327,885.55619)"><g
       id="g22"
       transform="translate(651.93215,676.9377)"><path
         id="path24"
         transform="matrix(0.75000002,0,0,-0.75000002,-408.36334,-12.770541)"
         d="M 58.859375,0.97265625 C 15.931376,0.97265625 0.08789062,16.815673 0.08789062,59.763672 V 577.99805 c 0,4.86 0.19566668,9.37397 0.625,13.55664 0.97733328,9.37466 1.16219298,18.46007 9.88085938,28.80273 0.852,1.01334 9.753906,7.63672 9.753906,7.63672 4.788,2.348 8.057027,4.07667 13.457032,6.25 L 294.59961,743.50781 c 13.53867,6.20667 19.19987,8.62631 29.0332,8.43164 v 0.002 h 0.0391 0.0371 v -0.002 c 9.83334,0.19467 15.49516,-2.22497 29.03516,-8.43164 L 613.53711,634.24414 c 5.40133,-2.17333 8.66965,-3.902 13.45898,-6.25 0,0 8.90129,-6.62338 9.75196,-7.63672 8.71866,-10.34266 8.90352,-19.42807 9.88086,-28.80273 0.42933,-4.18267 0.62695,-8.69664 0.62695,-13.55664 V 59.763672 c 0,-42.947999 -15.84482,-58.79101575 -58.77148,-58.79101575 z M 476.86523,98.300781 h 21.29297 c 35.60667,0 52.79883,17.277879 52.79883,53.060549 v 58.82617 h -42.97656 v -56.35742 c 0,-11.51733 -5.32362,-16.86133 -16.37695,-16.86133 h -7.36914 c -11.46002,0 -16.78516,5.344 -16.78516,16.86133 v 181.81445 c 0,11.51867 5.32514,16.86328 16.78516,16.86328 h 8.1914 c 11.04667,0 16.3711,-5.34461 16.3711,-16.86328 v -64.99219 h 42.98242 v 67.04688 c 0,35.79066 -17.59885,53.47461 -53.21485,53.47461 h -21.69922 c -35.60799,0 -53.21484,-17.68395 -53.21484,-53.47461 V 151.77539 c 0,-35.78933 17.60685,-53.474609 53.21484,-53.474609 z M 95.564453,100.76953 h 97.429687 v 39.89649 h -53.63086 v 81.44921 h 51.57617 v 39.89454 h -51.57617 v 86.79882 h 54.44531 v 39.89649 H 95.564453 Z m 119.388667,0 h 68.76954 c 35.61466,0 53.21484,17.68528 53.21484,53.47461 v 76.51172 c 0,35.78267 -17.60018,53.4668 -53.21484,53.4668 h -24.96875 v 104.48242 h -43.80079 z m 141.74415,0 h 43.80468 v 287.93555 h -43.80468 z m -97.94336,38.66602 v 106.1289 h 18.01367 c 11.05333,0 16.36914,-5.35047 16.36914,-16.86914 v -72.39843 c 0,-11.51604 -5.31581,-16.86133 -16.36914,-16.86133 z M 138.12695,457.20703 h 1.30664 1.18946 1.30664 1.30664 l 1.3164,0.11914 1.3086,0.1211 h 1.1875 l 1.1875,0.11914 1.30859,0.23828 1.07617,0.11914 1.1875,0.24023 1.18946,0.23828 1.07422,0.23828 1.06835,0.24024 1.07032,0.24023 1.07617,0.35743 1.06836,0.23828 0.94922,0.35937 1.07617,0.35938 1.07031,0.47656 1.06641,0.47851 1.07617,0.47852 1.07031,0.59766 1.06836,0.47851 0.95703,0.59766 1.06836,0.59765 0.94922,0.59766 1.07617,0.59766 0.94922,0.71679 0.94922,0.59766 0.95508,0.71875 0.94922,0.7168 0.95703,0.83594 0.94922,0.71679 -0.7168,0.95703 -0.83008,0.83594 -0.71679,0.95703 -0.83008,0.95508 -0.7168,0.95703 -0.71094,0.83594 -0.83789,0.95703 -0.70898,0.95508 -0.7168,0.83984 -0.83203,0.95508 -0.71484,0.95703 -0.83008,0.95508 -0.71875,0.83789 -0.70899,0.95508 -0.83593,0.95703 -0.71289,0.95508 -0.83594,0.83789 -0.70899,0.95508 -0.95703,-0.7168 -0.94922,-0.83594 -0.95507,-0.59765 -0.94922,-0.71875 -0.95117,-0.59571 -0.95508,-0.59961 -0.95118,-0.5957 -1.06835,-0.59961 -0.95508,-0.47656 -0.94922,-0.47852 -0.95703,-0.35937 -1.06836,-0.35742 -1.06836,-0.35938 -1.07617,-0.23828 -1.1875,-0.24023 -1.1875,-0.23829 -1.18946,-0.11914 -1.30859,-0.11914 -1.31445,-0.11914 h -1.3086 -1.1875 l -1.1875,0.11914 -1.07617,0.11914 -1.1875,0.23828 -1.07031,0.24024 -1.07617,0.35742 -1.06836,0.35938 -1.06836,0.47851 -1.07031,0.47656 -0.95508,0.59766 -0.94727,0.59766 -0.95898,0.59961 -0.82813,0.71679 -0.83789,0.7168 -0.83008,0.7168 -0.71679,0.83593 -0.82813,0.83789 -0.71875,0.95508 -0.59179,0.83789 -0.59766,0.95703 -0.58789,1.07422 -0.59961,0.95703 -0.47656,1.07618 -0.35938,1.07617 -0.47266,1.07617 -0.35742,1.19336 -0.23828,1.18945 -0.24023,1.07422 -0.24024,1.31641 -0.11718,1.19531 -0.11329,1.19531 v 1.31446 0.24023 1.19531 l 0.11329,1.19531 0.11718,1.07618 0.1211,1.19531 0.23828,1.07422 0.24023,1.07812 0.23828,1.07422 0.35938,1.07617 0.35156,0.95508 0.47852,1.19531 0.47656,1.07813 0.5918,1.07422 0.59765,0.95703 0.59766,0.95508 0.70898,0.95898 0.71875,0.83594 0.82813,0.83594 0.71875,0.83593 0.82812,0.71875 0.95703,0.7168 0.94922,0.7168 0.94922,0.59765 0.95508,0.59766 1.07031,0.47852 1.06836,0.47851 1.07617,0.47656 1.1875,0.35938 1.18946,0.35937 1.19531,0.24024 1.1875,0.23828 1.18945,0.11914 1.30664,0.11914 h 1.3086 1.42578 l 1.3164,-0.11914 1.3086,-0.11914 1.1875,-0.12109 1.1875,-0.24024 1.19726,-0.23828 1.1875,-0.35742 1.06836,-0.24024 1.07032,-0.47656 0.95507,-0.47851 1.06836,-0.47852 0.83594,-0.47852 0.95117,-0.59765 v -1.19531 -1.19336 -1.19727 -1.19336 -1.3164 -1.19532 -1.19531 -1.19531 -1.19531 h -1.18945 -1.07422 -1.18945 -1.1875 -1.18946 -1.07421 -1.18946 -1.18945 -1.1875 -1.07422 -1.18945 -1.1875 -1.18946 -1.07617 -1.1875 v -1.19532 -1.07617 -1.19531 -1.19531 -1.19532 -1.07617 -1.19531 -1.19531 -1.19532 -1.07617 -1.19531 -1.19531 -1.19531 -1.07618 -1.1875 h 1.1875 1.19531 1.18946 1.1875 1.18945 1.1875 1.19531 1.1875 1.18946 1.18945 1.19336 1.18945 1.1875 1.1875 1.19532 1.18945 1.18945 1.1875 1.19531 1.18946 1.1875 1.1875 1.19531 1.18945 1.1875 1.1875 1.19727 1.1875 1.18945 1.1875 1.19531 1.1875 1.18946 v 1.1875 1.19532 1.19531 1.07617 1.19531 1.19531 1.19532 1.19531 1.19531 1.07617 1.19532 1.19531 1.19531 1.19531 1.19532 1.19531 1.07617 1.19531 1.19532 1.19726 1.19336 1.19727 1.19336 1.07617 1.19531 1.19531 1.19727 1.19336 1.19531 1.07617 1.19532 1.19531 1.19531 l -0.83008,0.7168 -0.95508,0.71679 -0.83203,0.59961 -0.95508,0.7168 -0.94922,0.59766 -0.94922,0.71679 -0.95703,0.59766 -0.94922,0.59766 -1.07617,0.5957 -1.06836,0.59961 -1.07031,0.59765 -1.07422,0.47071 -1.06836,0.59765 -1.18945,0.47852 -1.06641,0.47851 -1.19726,0.47657 -1.06836,0.47851 -1.07032,0.35938 -1.07421,0.35937 -1.06836,0.35938 -1.18946,0.35742 -1.06836,0.35937 -1.19531,0.23829 -1.06836,0.24023 -1.18945,0.23828 -1.19336,0.23828 -1.18945,0.11914 -1.3086,0.1211 -1.1875,0.11914 -1.30859,0.11914 -1.19531,0.11914 -1.30664,0.11914 h -1.3086 -1.30859 -1.30664 -1.19727 l -1.1875,-0.11914 -1.30859,-0.11914 -1.1875,-0.11914 -1.1875,-0.11914 -1.19727,-0.1211 -1.1875,-0.23828 -1.18945,-0.24023 -1.06836,-0.23828 -1.19336,-0.23828 -1.07031,-0.35938 -1.1875,-0.23828 -1.07617,-0.35938 -1.06836,-0.47851 -1.07031,-0.35742 -1.18555,-0.47852 -1.07617,-0.47851 -1.07032,-0.47657 -1.06836,-0.47851 -1.07617,-0.59766 -0.94922,-0.5918 -1.06836,-0.59765 -0.95703,-0.59961 -0.94922,-0.5957 -0.95507,-0.71875 -0.94922,-0.71485 -0.95117,-0.71875 -0.83594,-0.7168 -0.83008,-0.71679 -0.83594,-0.83789 -0.83008,-0.71485 -0.83789,-0.83789 -0.82812,-0.83789 -0.71875,-0.83593 -0.70899,-0.95508 -0.71875,-0.83789 -0.59765,-0.95508 -0.70899,-0.95899 -0.59765,-0.95312 -0.5918,-0.95899 -0.595702,-1.07617 -0.597657,-0.95508 -0.470703,-1.07617 -0.478516,-1.07617 -0.478515,-1.07617 -0.470703,-1.07422 -0.359375,-0.95508 -0.478516,-1.07812 -0.238281,-1.07617 -0.353516,-1.07422 -0.238281,-1.19532 -0.357422,-1.07617 -0.240234,-1.19531 -0.119141,-1.07617 -0.240234,-1.19531 -0.117188,-1.07618 -0.121094,-1.19531 -0.111328,-1.19531 -0.11914,-1.19531 v -1.31446 -1.19531 -0.24023 -1.19532 l 0.11914,-1.31445 v -1.19531 l 0.111328,-1.19531 0.121094,-1.31446 0.238282,-1.1875 0.11914,-1.19726 0.238281,-1.07618 0.359375,-1.19336 0.240235,-1.19726 0.349609,-1.07617 0.359375,-1.19336 0.359375,-1.07617 0.478516,-1.19727 0.470703,-1.07422 0.478515,-1.07617 0.478516,-1.07617 0.470703,-1.07617 0.597657,-1.07422 0.595702,-0.95703 0.5918,-0.95703 0.59765,-0.95704 0.59766,-0.95507 0.70898,-0.95704 0.71875,-0.95507 0.70899,-0.95508 0.71875,-0.83985 0.82812,-0.83593 0.71875,-0.83789 0.83008,-0.83399 0.83594,-0.83789 0.83008,-0.7168 0.95508,-0.83789 0.83007,-0.71679 0.94922,-0.7168 0.95703,-0.59766 0.94922,-0.71679 0.95703,-0.59766 0.94727,-0.59766 1.07031,-0.59765 1.07617,-0.59766 1.06836,-0.59765 1.06836,-0.47852 1.07422,-0.47852 1.18945,-0.59765 0.94922,-0.35742 1.18946,-0.35938 1.07617,-0.47851 1.06836,-0.24024 1.06836,-0.35742 1.19531,-0.24024 1.06836,-0.35742 1.1875,-0.23828 1.18945,-0.12109 1.19531,-0.23828 1.18946,-0.11914 1.18554,-0.11914 1.18946,-0.1211 z m 375.13477,0.24024 h 1.1875 1.31445 1.3086 1.30664 l 1.30859,0.11914 1.30859,0.11914 h 1.1875 l 1.31446,0.11914 1.1875,0.24023 1.30859,0.11914 1.18945,0.23828 1.07618,0.23828 1.1875,0.24024 1.18945,0.24023 1.06836,0.23829 1.19531,0.35742 1.06836,0.35937 1.07031,0.24024 1.19336,0.47656 1.07031,0.35937 1.06836,0.47657 1.06836,0.47851 1.19532,0.47852 1.06835,0.59765 0.94922,0.47852 1.07618,0.59766 1.07031,0.59765 0.94922,0.59961 1.07422,0.7168 0.95117,0.5957 0.95508,0.71875 0.94921,0.7168 0.94922,0.7168 -0.70898,0.95703 -0.59766,0.95507 -0.71093,0.95704 -0.7168,0.95703 -0.71094,1.07422 -0.59766,0.95703 -0.71679,0.95703 -0.71094,0.95508 -0.5957,0.95703 -0.71289,0.95703 -0.7168,0.95703 -0.59766,0.95508 -0.70898,1.07617 -0.71875,0.95508 -0.70899,0.95703 -0.59765,0.95508 -0.71094,0.95703 -0.95703,-0.7168 -1.06641,-0.59765 -0.95117,-0.59766 -0.95703,-0.7168 -1.06641,-0.47851 -0.95898,-0.59766 -1.06641,-0.47851 -0.94922,-0.47852 -1.07617,-0.47852 -0.94922,-0.47656 -1.06836,-0.35937 -0.95703,-0.47852 -1.30859,-0.35742 -1.1875,-0.35938 -1.18945,-0.35742 -1.19532,-0.24023 -1.1875,-0.23828 -1.1875,-0.24024 -1.18945,-0.12109 -1.19531,-0.11719 -1.06836,-0.12109 h -1.18945 -1.42579 l -1.30859,0.23828 -1.19531,0.24023 -1.06836,0.23828 -0.94922,0.48047 -0.83789,0.47657 -1.06836,0.95703 -0.71875,1.07617 -0.46875,1.07617 -0.12109,1.19531 v 0.23828 l 0.12109,1.55469 0.58984,1.31445 0.47852,0.7168 0.82812,0.83789 1.07618,0.59766 0.94922,0.59765 1.18945,0.47852 1.31445,0.47852 1.42774,0.47656 0.94921,0.23828 0.94922,0.35937 1.07617,0.23829 1.06836,0.35937 1.1875,0.24023 1.31641,0.35743 1.30859,0.35742 1.30664,0.36133 1.30665,0.23828 1.18945,0.35742 1.30664,0.35938 1.19726,0.23828 1.18946,0.35937 1.1875,0.35742 1.06836,0.35938 1.19531,0.35937 1.06836,0.35742 1.06836,0.35938 1.31445,0.4707 1.18946,0.59961 1.1875,0.47657 1.18945,0.59765 1.07617,0.59766 1.06836,0.59765 0.94922,0.59766 0.95508,0.7168 0.95117,0.59765 0.94922,0.83789 0.95507,0.83594 0.83008,0.95703 0.83594,0.83594 0.71094,0.95703 0.7168,1.07422 0.59179,0.95703 0.59766,1.07617 0.47656,0.95703 0.35938,1.07422 0.35156,1.07617 0.24023,1.07618 0.23828,1.19531 0.23828,1.19727 0.11915,1.19335 0.12109,1.31446 v 1.3164 0.23829 1.3164 l -0.12109,1.31445 -0.11915,1.19532 -0.11914,1.3125 -0.24023,1.19726 -0.35742,1.19336 -0.23047,1.07617 -0.36133,1.19727 -0.47656,1.07617 -0.47852,0.95703 -0.4707,1.07422 -0.59766,0.95508 -0.59765,0.95898 -0.71094,0.95508 -0.59766,0.95703 -0.70898,0.83594 -0.83789,0.83594 -0.71094,0.71875 -0.95508,0.83594 -0.83007,0.71875 -0.95704,0.71679 -0.94922,0.58985 -0.94921,0.71679 -1.07618,0.59766 -1.06835,0.47851 -1.06836,0.59766 -1.19532,0.47852 -1.18945,0.47851 -1.1875,0.35742 -1.1875,0.35938 -1.07617,0.35742 -1.1875,0.24024 -1.07031,0.23828 -1.06836,0.23828 -1.19532,0.24023 -1.18945,0.11914 -1.06836,0.11914 -1.19531,0.1211 -1.30664,0.11914 -1.18945,0.11914 h -1.1875 -1.3086 -1.31445 -1.1875 l -1.18945,-0.11914 h -1.30665 l -1.18945,-0.11914 -1.19531,-0.1211 -1.30859,-0.11914 -1.1875,-0.23828 -1.1875,-0.12109 -1.19532,-0.23828 -1.18945,-0.23828 -1.18945,-0.24024 -1.1875,-0.23828 -1.19532,-0.35742 -1.06836,-0.24024 -1.1875,-0.35937 -1.18945,-0.35742 -1.07422,-0.47852 -1.18945,-0.35937 -1.06836,-0.35743 -1.18945,-0.47851 -1.07422,-0.47852 -1.07031,-0.47851 -1.06836,-0.58985 -1.07618,-0.47851 -1.06836,-0.59961 -0.94921,-0.5957 -1.07618,-0.59766 -0.94921,-0.59766 -0.95704,-0.59765 -0.94921,-0.7168 -0.94922,-0.7168 -0.95508,-0.71875 -0.95117,-0.71679 -0.83594,-0.7168 -0.94922,-0.83594 0.7168,-0.95703 0.83008,-0.83594 0.71679,-0.95898 0.83008,-0.95508 0.71875,-0.83594 0.70898,-0.95703 0.8379,-0.95703 0.70898,-0.83594 0.83789,-0.95507 0.70899,-0.8379 0.83593,-0.95507 0.71094,-0.95899 0.71875,-0.83594 0.82812,-0.95507 0.7168,-0.95703 0.83008,-0.83594 0.7168,-0.95703 0.94922,0.71875 1.07031,0.71679 0.95508,0.7168 1.07031,0.7168 0.95508,0.59765 1.07031,0.7168 0.94727,0.59766 1.07812,0.47851 0.94727,0.59766 1.07031,0.47851 1.07617,0.47852 1.06641,0.47852 1.07226,0.35742 1.07422,0.47851 1.1875,0.35742 1.18945,0.35938 1.06836,0.35937 1.19532,0.24024 1.1875,0.23828 1.18945,0.23828 1.30664,0.11914 1.19531,0.24024 h 1.18945 l 1.30665,0.11718 h 1.18945 1.42578 l 1.30859,-0.11718 1.19532,-0.24024 1.06836,-0.23828 1.07031,-0.24023 0.95508,-0.35743 0.83203,-0.47851 0.95508,-0.7168 0.70898,-0.83789 0.47852,-0.95703 0.36132,-1.07422 0.11719,-1.19531 v -0.24024 l -0.11719,-1.43359 -0.47851,-1.19727 -0.59961,-0.83593 -0.83008,-0.7168 -0.95703,-0.7168 -0.94922,-0.47851 -1.06836,-0.47852 -1.19531,-0.47851 -1.42578,-0.59571 -0.83203,-0.24023 -0.94727,-0.23828 -1.07617,-0.35938 -1.07031,-0.23828 -1.1875,-0.35937 -1.19532,-0.23828 -1.30664,-0.35938 -1.18945,-0.23828 -1.30859,-0.35938 -1.1875,-0.23828 -1.19532,-0.35937 -1.1875,-0.23828 -1.18945,-0.35938 -1.07617,-0.35742 -1.18555,-0.24023 -1.07226,-0.35938 -1.06641,-0.35742 -1.07617,-0.35938 -1.3086,-0.47851 -1.1875,-0.47852 -1.18945,-0.47656 -1.19531,-0.47852 -1.06836,-0.59765 -1.18945,-0.59766 -0.95508,-0.59765 -1.07031,-0.59766 -0.94922,-0.7168 -0.95508,-0.59765 -0.83008,-0.71875 -0.83594,-0.83594 -0.83008,-0.83789 -0.71679,-0.83594 -0.71094,-0.83594 -0.59766,-0.83593 -0.58984,-0.95899 -0.59766,-1.07422 -0.47851,-0.82812 -0.35938,-0.95899 -0.35156,-1.07422 -0.35742,-0.95703 -0.24024,-1.19531 -0.23828,-1.07617 -0.12109,-1.19531 -0.11719,-1.19532 -0.12109,-1.31445 v -1.31445 -0.24024 -1.19531 l 0.12109,-1.19531 0.11719,-1.07617 0.12109,-1.19532 0.23828,-1.07422 0.24024,-1.07617 0.35742,-1.07812 0.24024,-1.07422 0.4707,-1.07617 0.47851,-1.07617 0.47657,-1.07422 0.59179,-1.07813 0.59571,-1.07422 0.71093,-0.95703 0.71875,-0.95508 0.83008,-0.95703 0.83594,-0.83594 0.83008,-0.95703 0.95703,-0.83789 0.82812,-0.59765 0.95704,-0.7168 0.94921,-0.7168 0.94922,-0.59765 1.07618,-0.59766 1.06835,-0.47852 1.06836,-0.59765 1.07618,-0.47656 1.1875,-0.35938 1.1875,-0.47851 1.07617,-0.35743 0.94922,-0.24023 1.07226,-0.24024 1.07422,-0.23828 1.1875,-0.23828 1.07031,-0.24023 1.1875,-0.11914 1.19532,-0.11914 1.1875,-0.11914 z m -289.08984,0.83593 h 1.1875 1.07617 1.1875 1.18945 1.19531 1.06836 1.1875 1.18945 1.19532 1.07031 1.18555 1.18945 1.19531 1.07032 1.1875 1.1875 1.19531 1.06836 1.18945 l 0.47852,1.07618 0.47851,1.07617 0.4707,1.07617 0.47852,1.19531 0.35742,1.07422 0.47071,1.07617 0.47851,1.07617 0.47852,1.07618 0.47851,1.07617 0.4707,1.19336 0.47852,1.07812 0.47852,1.07422 0.35156,1.07617 0.47851,1.07617 0.47852,1.07618 0.47852,1.19531 0.4707,1.07617 0.47656,1.07617 0.47852,1.07422 0.4707,1.07617 0.35937,1.07618 0.47657,1.19531 0.47265,1.07617 0.47852,1.07617 0.47656,1.07617 0.47852,1.07618 0.4707,1.07421 0.47852,1.19532 0.35937,1.07617 0.4707,1.07422 0.47852,1.07617 0.47852,1.07812 0.47851,1.07422 0.4707,1.19531 0.47852,1.06836 0.47656,1.07813 0.35156,1.07422 0.47852,1.07617 0.47852,1.07617 0.4707,1.07617 0.47852,1.19532 0.47851,1.07617 0.47852,1.07422 0.4707,1.07617 0.35937,1.07617 0.47657,1.07617 0.47265,1.19532 0.47657,1.07617 0.47851,1.07422 0.47852,1.07617 0.4707,1.07617 0.47852,1.07617 0.35742,1.19531 0.47265,1.07618 0.47657,1.07617 0.47851,1.07617 0.47071,1.07617 0.47851,1.07422 0.48047,1.19531 0.47852,1.07617 0.3496,1.07618 0.47852,1.07422 0.47852,1.07812 0.4707,1.07617 0.47851,1.19336 0.47852,1.07617 0.47656,1.07618 0.47071,1.07617 0.35937,1.07422 0.48047,1.07617 0.4707,1.19726 0.47656,1.07422 0.47657,1.07617 0.47265,1.07618 0.47657,1.07617 0.47851,1.06836 0.36133,1.19531 0.46875,1.07617 0.47852,1.07617 0.47851,1.07617 h -1.1875 -1.19531 -1.07031 -1.18555 -1.19727 -1.1875 -1.18945 -1.06836 -1.19531 -1.1875 -1.18945 -1.18946 -1.19336 -1.07031 -1.1875 -1.18945 -1.19532 -1.1875 -1.06835 -1.18946 -1.19336 l -0.47265,-1.07617 -0.35938,-1.07617 -0.47656,-1.07617 -0.47852,-1.19531 -0.35156,-1.06836 -0.47851,-1.07617 -0.47852,-1.07618 -0.35156,-1.07617 -0.47657,-1.07422 -0.48046,-1.07617 -0.35547,-1.07617 -0.47266,-1.19531 -0.47851,-1.07617 -0.35938,-1.07618 -0.47852,-1.07617 h -1.1875 -1.1875 -1.18945 -1.1875 -1.07617 -1.18945 -1.1875 -1.19532 -1.1875 -1.18945 -1.1875 -1.1875 -1.19726 -1.1875 -1.06836 -1.19532 -1.18945 -1.1875 -1.18945 -1.19336 -1.18946 -1.18945 -1.1875 -1.1875 -1.07812 -1.18555 -1.18945 -1.19532 -1.18945 l -0.4707,1.07617 -0.35742,1.07618 -0.47852,1.07617 -0.47852,1.19531 -0.35156,1.07617 -0.47656,1.07617 -0.48047,1.07422 -0.35742,1.07617 -0.4707,1.07618 -0.47852,1.07617 -0.35937,1.06836 -0.47266,1.19531 -0.47656,1.07617 -0.35938,1.07617 -0.47851,1.07617 h -1.1875 -1.1875 -1.1875 -1.19727 -1.1875 -1.30859 -1.1875 -1.18946 -1.19531 -1.1875 -1.1875 -1.18945 -1.19531 -1.1875 -1.1875 -1.3086 -1.19531 -1.18945 -1.1875 -1.18946 l 0.47071,-1.07617 0.47851,-1.07617 0.47852,-1.07617 0.4707,-1.19531 0.35938,-1.06836 0.47851,-1.07617 0.47852,-1.07618 0.4707,-1.07617 0.47852,-1.07422 0.47851,-1.19726 0.4707,-1.07617 0.47852,-1.07422 0.35742,-1.07617 0.47852,-1.07618 0.4707,-1.07617 0.47852,-1.19336 0.47656,-1.07617 0.47266,-1.07812 0.47851,-1.07422 0.47656,-1.07618 0.35938,-1.07617 0.4707,-1.19531 0.47852,-1.07422 0.47851,-1.07617 0.47071,-1.07617 0.47851,-1.07617 0.47852,-1.07618 0.4707,-1.19531 0.35938,-1.07617 0.47851,-1.07617 0.47656,-1.07617 0.47266,-1.07422 0.47656,-1.07617 0.47852,-1.19532 0.4707,-1.07617 0.47852,-1.07617 0.35742,-1.07617 0.48047,-1.07422 0.4707,-1.07617 0.47852,-1.19532 0.47851,-1.07617 0.4707,-1.07617 0.47657,-1.07617 0.47851,-1.07422 0.35938,-1.07813 0.4707,-1.06836 0.47852,-1.19531 0.47656,-1.07422 0.47265,-1.07812 0.47657,-1.07617 0.47851,-1.07422 0.47071,-1.07617 0.35937,-1.19532 0.47852,-1.07421 0.47656,-1.07618 0.47266,-1.07617 0.47851,-1.07617 0.47852,-1.07617 0.4707,-1.19531 0.47852,-1.07618 0.35742,-1.07617 0.47851,-1.07422 0.47071,-1.07617 0.47851,-1.07617 0.47852,-1.19531 0.4707,-1.07618 0.47852,-1.07617 0.47851,-1.07617 0.35156,-1.07422 0.47852,-1.07812 0.47852,-1.19336 0.47851,-1.07617 0.4707,-1.07618 0.47852,-1.07617 0.47656,-1.07617 0.47071,-1.07422 0.35937,-1.19531 0.47852,-1.07617 0.47851,-1.07617 z m 68.57812,0.59766 h 1.1875 1.19531 1.07031 1.1875 1.18946 1.19531 1.06836 1.1875 1.19727 1.1875 1.06836 1.18945 1.19531 1.1875 1.06836 1.1875 1.19727 1.18945 1.0664 1.18946 1.19531 l 0.58984,0.95703 0.59766,1.07422 0.70899,0.94922 0.5996,1.07617 0.59766,0.95508 0.58984,1.07812 0.59766,0.94727 0.71289,1.07812 0.5957,0.95703 0.59766,0.95508 0.5918,1.06836 0.59765,0.95703 0.70899,1.07422 0.59765,0.95703 0.59766,1.06836 0.58984,0.95703 0.71875,0.95508 0.59766,1.07031 0.58984,0.95508 0.59766,1.07618 0.5918,0.95703 0.71679,1.06836 0.59766,0.95703 0.58984,1.07422 0.59766,0.94921 0.5918,0.95704 0.71679,1.07617 0.59766,0.95703 0.58984,1.07617 0.59766,0.94922 0.5918,1.07617 0.71679,0.95508 0.59766,1.06836 0.5918,0.95703 0.59765,-0.95703 0.59571,-1.06836 0.71093,-0.95508 0.59571,-1.07617 0.59375,-0.94922 0.5957,-1.07617 0.71094,-0.95703 0.59765,-1.07617 0.59961,-0.95704 0.58789,-0.94921 0.71875,-1.07422 0.58985,-0.95703 0.59961,-1.06836 0.5957,-0.95703 0.71094,-1.07618 0.5957,-0.95508 0.59961,-1.07031 0.58984,-0.95508 0.59961,-0.95703 0.70899,-1.06836 0.59765,-0.95703 0.59766,-1.07422 0.5918,-0.95703 0.71484,-1.06836 0.5918,-0.95508 0.59765,-0.95703 0.59766,-1.07812 0.70898,-0.94727 0.59961,-1.07812 0.58985,-0.95508 0.59765,-1.07617 0.7168,-0.94922 0.5918,-1.07422 0.59765,-0.95703 h 1.1875 1.18946 1.07422 1.18945 1.1875 1.18945 1.07422 1.18945 1.1875 1.18946 1.07617 1.1875 1.1875 1.18945 1.07422 1.18945 1.18946 1.1875 1.07617 1.1875 1.1875 v 1.19531 1.19531 1.19532 1.19531 1.19531 1.19531 1.19532 1.19531 1.19531 1.19531 1.19532 1.19531 1.19531 1.19531 1.19532 1.19726 1.19531 1.19532 1.07422 1.19531 1.19531 1.19531 1.19532 1.19726 1.19531 1.19532 1.19531 1.19336 1.19726 1.19532 1.19531 1.18945 1.19336 1.19727 1.19336 1.19531 1.19531 1.19531 1.19532 1.19726 1.19336 1.19727 1.19531 1.19531 1.19336 1.19531 1.19532 1.19726 1.19336 1.19727 1.19531 1.19531 1.19336 1.19727 1.07617 1.19531 1.19531 1.19336 1.19727 1.19336 1.19726 1.19532 1.19531 1.19531 1.19531 1.19532 1.19531 1.19336 1.19726 1.18946 1.19336 1.19726 1.19531 h -1.1875 -1.1875 -1.18945 -1.31446 -1.1875 -1.18945 -1.1875 -1.19531 -1.18946 -1.30664 -1.18945 -1.1875 -1.19531 -1.1875 -1.18946 -1.30664 -1.19726 -1.1875 -1.18945 v -1.19531 -1.19726 -1.19336 -1.19727 -1.20117 -1.19531 -1.19532 -1.19726 -1.19336 -1.19531 -1.19531 -1.20313 -1.19531 -1.19532 -1.19531 -1.19531 -1.20312 -1.19532 -1.19531 -1.19531 -1.19532 -1.19531 -1.20117 -1.19531 -1.19727 -1.19531 -1.19531 -1.19532 -1.20312 -1.19531 -1.19531 -1.19336 -1.19532 -1.19531 -1.20312 -1.19532 -1.19531 -1.19531 -1.19531 -1.20313 -1.19531 -1.19531 -1.19532 l -0.59571,0.95508 -0.71094,1.08399 -0.59765,0.95703 -0.71094,0.95703 -0.5957,1.07422 -0.71875,0.95703 -0.58985,0.95703 -0.59961,1.08203 -0.70898,0.95508 -0.59766,0.95703 -0.71679,0.95703 -0.58985,1.08203 -0.71875,0.95703 -0.58984,0.95508 -0.59961,1.07617 -0.7168,0.96289 -0.58984,0.95704 -0.71875,1.07617 -0.58789,0.95703 -0.71875,0.95508 -0.58984,1.08203 -0.59961,0.95898 -0.71485,0.95508 -0.59179,1.07617 -0.7168,0.96289 -0.58984,0.95508 -0.7168,0.95899 -0.59961,1.07421 -0.58985,0.9629 -0.71679,0.95703 -0.58985,1.07617 -0.71875,0.95508 -0.59765,0.95703 -0.70899,1.08398 -0.59765,0.95508 h -0.47266 l -0.7168,-1.07617 -0.59765,-0.96289 -0.71094,-1.07617 -0.59766,-0.95704 -0.71093,-1.07421 -0.59571,-0.96485 -0.71093,-1.07422 -0.59766,-0.95898 -0.7168,-1.07422 -0.59179,-0.95508 -0.7168,-1.08398 -0.58984,-0.95703 -0.7168,-1.07618 -0.59961,-0.95507 -0.70898,-1.08204 -0.59766,-0.95703 -0.70899,-1.07617 -0.71875,-0.95508 -0.59765,-1.08398 -0.70899,-0.95508 -0.59765,-1.07617 -0.71094,-0.95703 -0.59766,-1.08399 -0.71093,-0.95507 -0.59766,-1.07618 -0.7168,-0.95507 -0.58984,-1.07618 -0.71875,-0.96484 -0.58984,-1.07422 -0.7168,-0.95703 -0.59766,-1.07617 -0.70898,-0.95508 -0.60156,-1.08398 -0.70899,-0.95508 v 1.19336 1.19726 1.19531 1.20118 1.19531 1.19531 1.19531 1.19727 1.20117 1.19531 1.07618 1.19531 1.19531 1.19531 1.20313 1.19531 1.19531 1.19336 1.19727 1.19531 1.20117 1.19532 1.19726 1.19336 1.19727 1.19336 1.20312 1.19531 1.19532 1.19531 1.19531 1.20117 1.07813 1.19531 1.19336 1.19726 1.19532 1.19531 1.20117 1.19727 1.19336 1.19726 1.19531 h -1.1875 -1.19531 -1.18945 -1.1875 -1.1875 -1.19532 -1.18945 -1.1875 -1.18945 -1.19532 -1.1875 -1.18945 -1.1875 -1.19531 -1.1875 -1.18945 -1.18946 -1.19531 -1.1875 v -1.19531 -1.19726 -1.19336 -1.18946 -1.19726 -1.19336 -1.19531 -1.19532 -1.19531 -1.19531 -1.19531 -1.19532 -1.19726 -1.19336 -1.19727 -1.19336 -1.19531 -1.19531 -1.07617 -1.19727 -1.19336 -1.19531 -1.19531 -1.19727 -1.19336 -1.19726 -1.19532 -1.19531 -1.19336 -1.19531 -1.19531 -1.19727 -1.19336 -1.19726 -1.19532 -1.19531 -1.19531 -1.19531 -1.19336 -1.19727 -1.19336 -1.18945 -1.19531 -1.19532 -1.19726 -1.19336 -1.19531 -1.19532 -1.19531 -1.19726 -1.19532 -1.19531 -1.19531 -1.19531 -1.07422 -1.19532 -1.19531 -1.19726 -1.19532 -1.19531 -1.19531 -1.19531 -1.19532 -1.19531 -1.19531 -1.19531 -1.19532 -1.19531 -1.19531 -1.19531 -1.19532 -1.19531 z m 108.61133,0 h 1.1875 1.18945 1.19531 1.18555 1.18945 1.18946 1.19531 1.1875 1.1875 1.18945 1.19531 1.18946 1.1875 1.1875 1.07617 1.18945 1.1875 1.18946 1.19336 1.18945 1.1875 1.18945 1.19531 1.1875 1.1875 1.18946 1.19531 1.18945 1.1875 1.1875 1.19727 1.1875 1.1875 1.1875 1.18945 1.19727 1.1875 1.1875 1.1875 1.19726 1.1875 1.1875 1.1875 1.07813 1.1875 1.18945 1.18945 1.19336 1.1875 1.18946 1.1875 1.19531 1.18945 1.1875 1.18946 1.19335 1.18946 1.18945 v 1.19531 1.07617 1.19532 1.19531 1.19531 1.07617 1.19532 1.19531 1.07422 1.19726 1.19336 1.07813 1.19531 1.19336 1.19726 1.07618 1.19531 h -1.18945 -1.18946 -1.19335 -1.18946 -1.1875 -1.18945 -1.07617 -1.1875 -1.1875 -1.18946 -1.19531 -1.1875 -1.18945 -1.1875 -1.19727 -1.1875 -1.1875 -1.1875 -1.19726 -1.06641 -1.18945 -1.18946 -1.19531 -1.1875 -1.18945 -1.1875 -1.19531 -1.1875 -1.18946 -1.1875 -1.19531 -1.18945 -1.06836 -1.1875 -1.19531 -1.18946 -1.1875 -1.18945 -1.19531 v 1.19531 1.19336 1.19531 1.19532 1.19726 1.07617 1.19336 1.19727 1.19336 1.19726 1.19336 1.19727 h 1.19531 1.18945 1.1875 1.18946 1.19531 1.1875 1.1875 1.18945 1.07617 1.1875 1.18946 1.1875 1.19531 1.1875 1.18945 1.1875 1.19531 1.18946 1.18945 1.1875 1.19336 1.18945 1.18946 1.18945 1.19336 1.18945 1.06836 1.1875 1.19531 1.18946 1.1875 1.1875 1.19531 1.18945 1.1875 v 1.19336 1.07617 1.18945 1.19532 1.07617 1.19336 1.19726 1.07617 1.19532 1.19531 1.19531 1.07422 1.19531 1.19531 1.07813 1.19531 h -1.1875 -1.18945 -1.19531 -1.1875 -1.1875 -1.18946 -1.19531 -1.1875 -1.06836 -1.18945 -1.19336 -1.18945 -1.18946 -1.18945 -1.19336 -1.1875 -1.18945 -1.18946 -1.19531 -1.1875 -1.18945 -1.1875 -1.19531 -1.1875 -1.18946 -1.1875 -1.07617 -1.18945 -1.1875 -1.1875 -1.19531 -1.18946 -1.1875 -1.18945 -1.19531 v 1.19336 1.31641 1.19531 1.19531 1.31446 1.19726 1.19336 1.31445 1.19532 1.19531 1.31445 1.19532 h 1.19531 1.18945 1.1875 1.18946 1.19531 1.1875 1.1875 1.18945 1.19531 1.3086 1.1875 1.1875 1.19531 1.18945 1.18946 1.1875 1.19531 1.1875 1.18945 1.1875 1.1875 1.19727 1.1875 1.18945 1.18555 1.19726 1.18946 1.1875 1.1875 1.31445 1.18945 1.1875 1.18946 1.19531 1.1875 1.18945 1.1875 1.19531 1.1875 v 1.19726 1.07422 1.19726 1.19336 1.19727 1.07617 1.19336 1.19531 1.07813 1.19336 1.19531 1.07813 1.1875 1.19531 1.19336 1.07812 1.19531 h -1.1875 -1.19531 -1.1875 -1.18945 -1.1875 -1.19531 -1.18946 -1.1875 -1.18945 -1.31445 -1.1875 -1.1875 -1.18946 -1.19726 -1.18555 -1.18945 -1.1875 -1.19727 -1.1875 -1.1875 -1.18945 -1.1875 -1.19531 -1.1875 -1.18946 -1.18945 -1.19531 -1.1875 -1.1875 -1.3086 -1.19531 -1.18945 -1.1875 -1.1875 -1.19531 -1.18946 -1.1875 -1.18945 -1.19531 -1.1875 -1.1875 -1.18946 -1.19726 -1.18555 -1.18945 -1.1875 -1.19531 -1.18946 -1.30859 -1.1875 -1.1875 -1.19531 -1.18946 -1.18945 -1.18555 -1.19531 -1.18945 -1.1875 v -1.19531 -1.19726 -1.19336 -1.18946 -1.19726 -1.19336 -1.19531 -1.19532 -1.19531 -1.19531 -1.19531 -1.19532 -1.19726 -1.19336 -1.19727 -1.19336 -1.19531 -1.19531 -1.07617 -1.19727 -1.19336 -1.19531 -1.19531 -1.19727 -1.19336 -1.19726 -1.19532 -1.19531 -1.19336 -1.19531 -1.19531 -1.19727 -1.19336 -1.19726 -1.19532 -1.19531 -1.19531 -1.19531 -1.19336 -1.19727 -1.19336 -1.18945 -1.19531 -1.19532 -1.19726 -1.19336 -1.19531 -1.19532 -1.19531 -1.19726 -1.19532 -1.19531 -1.19531 -1.19531 -1.07422 -1.19532 -1.19531 -1.19726 -1.19532 -1.19531 -1.19531 -1.19531 -1.19532 -1.19531 -1.19531 -1.19531 -1.19532 -1.19531 -1.19531 -1.19531 -1.19532 -1.19531 z M 235,485.71289 l -0.4707,1.07617 -0.35742,1.08399 -0.47852,1.19531 -0.47852,1.08203 -0.35156,1.07422 -0.47851,1.07812 -0.47852,1.20118 -0.4707,1.07617 -0.35938,1.07617 -0.47851,1.08203 -0.47852,1.07617 -0.35156,1.19727 -0.47656,1.08203 -0.47852,1.07422 -0.35742,1.07617 -0.47266,1.08203 -0.47851,1.19727 -0.47657,1.07617 -0.35156,1.08203 -0.47851,1.07617 -0.47852,1.19531 -0.35937,1.08399 -0.47071,1.07422 h 1.1875 1.18945 1.18946 1.19336 1.18945 1.1875 1.18945 1.19532 1.06836 1.1875 1.19726 1.1875 1.1875 1.18945 1.1875 1.19532 1.1875 l -0.47657,-1.07422 -0.35937,-1.08399 -0.4707,-1.19531 -0.47852,-1.07617 -0.35937,-1.08203 -0.47071,-1.07617 -0.47656,-1.19727 -0.35937,-1.08203 -0.47852,-1.07617 -0.4707,-1.07422 -0.35938,-1.08203 -0.47851,-1.19727 -0.35157,-1.07617 -0.47851,-1.08203 -0.47852,-1.07617 -0.35742,-1.07617 -0.4707,-1.20118 -0.47852,-1.07812 -0.35742,-1.07422 -0.47852,-1.08203 -0.4707,-1.19531 -0.35937,-1.08399 z m -36.10742,163.34375 h 250.74023 l -127.98242,42.20508 z"
         style="fill:#bebebe;fill-opacity:1;fill-rule:evenodd;stroke:none;stroke-width:1.33333325" /></g></g></svg>