<?xml version="1.0" encoding="UTF-8" standalone="no"?>
<svg xmlns="http://www.w3.org/2000/svg" width="24" height="24">
	<path
		fill="#bebebe"
		d="m 6.4338165,1.6074804 c 2.7069804,-1.3e-6 4.9014225,2.1944395 4.9014225,4.9014199 0,2.7069807 -2.1944418,4.9014217 -4.9014225,4.9014207 -2.2546531,0 -4.1417001,-1.5096389 -4.724969,-3.5633317 l 1.8772439,0.7744241 c 0.127438,0.6322829 0.6911,1.112622 1.3625951,1.112622 0.764622,0 1.387102,-0.62248 1.387102,-1.387101 v -0.06372 l 1.666483,-1.1910461 h 0.03921 c 1.019495,0 1.8478357,-0.828341 1.8478357,-1.847836 0,-1.0194949 -0.8283407,-1.847836 -1.8478357,-1.847836 -1.019495,0 -1.852736,0.8283411 -1.852736,1.847836 v 0.02451 l -1.161637,1.6958919 -0.07843,-0.0048 c -0.289184,0 -0.558762,0.08823 -0.7793271,0.24017 l -2.6369619,-1.0833 c 0.210761,-2.5242321 2.3183719,-4.509308 4.90142,-4.509308 m -1.823328,7.4354541 c 0.392113,0.161748 0.843044,-0.0196 1.004791,-0.411719 0.161747,-0.392112 -0.02451,-0.838143 -0.406818,-0.999889 l -0.627379,-0.259791 c 0.240169,-0.08823 0.509748,-0.09313 0.764621,0.01469 0.259775,0.102926 0.460734,0.303887 0.563663,0.563664 0.107831,0.254872 0.107831,0.539156 0,0.794028 -0.21076,0.529361 -0.833241,0.784236 -1.362594,0.563672 C 4.3016944,9.2046744 4.1154404,9.0184214 4.0125104,8.7978574 l 0.5979731,0.245072 M 9.2766347,5.2443293 c 0,0.681298 -0.5538602,1.235158 -1.2351572,1.235158 -0.676396,0 -1.230256,-0.55386 -1.230256,-1.235158 -0.00273,-0.6805783 0.5496777,-1.2329837 1.230256,-1.2302561 0.681297,0 1.2351572,0.5538591 1.2351572,1.2302561 m -2.1566242,0 c 0,0.509748 0.411719,0.926368 0.926369,0.926368 0.509747,0 0.921466,-0.41662 0.921466,-0.926368 0,-0.509746 -0.411719,-0.92637 -0.921466,-0.92637 -0.51465,0 -0.926369,0.4166239 -0.926369,0.92637 z M 10.980322,22.56069 h -8.842 c -0.5232103,0 -0.9473563,-0.427953 -0.947357,-0.955861 v -7.96552 c 7e-7,-0.527908 0.4241467,-0.955861 0.947357,-0.955861 h 8.842 c 0.52321,0 0.947356,0.427953 0.947357,0.955861 v 7.96552 c -10e-7,0.527908 -0.424147,0.955861 -0.947357,0.955861 z M 2.454107,20.489655 c -5e-7,0.263955 0.2120737,0.477933 0.4736801,0.477932 H 4.664607 V 20.330346 H 3.2435721 c -0.087203,0 -0.157894,-0.07133 -0.1578931,-0.159312 v -0.955861 c 2e-7,-0.08798 0.070691,-0.15931 0.157893,-0.15931 H 4.664607 V 18.418621 H 2.9277871 c -0.2616064,-1e-6 -0.4736806,0.213977 -0.4736801,0.477932 z m 2.526286,-5.735174 c -6e-7,-0.263953 -0.212073,-0.477929 -0.4736776,-0.47793 H 2.9277871 c -0.2616056,-10e-7 -0.4736795,0.213976 -0.4736801,0.47793 v 1.593105 c 0,0.263955 0.2120741,0.477932 0.4736801,0.477931 h 1.105249 v -0.637242 h -0.789464 c -0.087202,0 -0.1578928,-0.07133 -0.157893,-0.15931 v -0.955862 c 8e-7,-0.08798 0.070692,-0.159309 0.157893,-0.159309 h 0.947357 c 0.087201,1e-6 0.1578908,0.07132 0.1578916,0.159309 v 1.911725 c -8e-7,0.08798 -0.070691,0.159308 -0.1578917,0.159309 H 2.4541069 v 0.637243 h 2.0526085 c 0.2616058,-10e-7 0.4736786,-0.213979 0.4736776,-0.477933 z m 0,4.142072 v 1.593102 c -5e-7,0.263954 0.2120724,0.477932 0.473678,0.477932 H 7.033 c 0.261606,0 0.4736795,-0.213977 0.473679,-0.477932 V 18.896553 C 7.5066795,18.632598 7.294606,18.418621 7.033,18.418621 H 5.454071 c -0.2616056,0 -0.4736785,0.213978 -0.473678,0.477932 z m 2.842072,-4.142072 c -6e-7,-0.263954 -0.2120738,-0.47793 -0.473679,-0.47793 H 5.769858 c -0.2616056,-10e-7 -0.4736794,0.213976 -0.47368,0.47793 v 1.593105 c 0,0.263955 0.212074,0.477932 0.47368,0.477931 h 1.578928 c 0.2616056,0 0.473679,-0.213977 0.473679,-0.477931 z m 2.842071,0 c -10e-7,-0.263954 -0.212074,-0.47793 -0.473679,-0.47793 H 8.611929 c -0.2616048,0 -0.4736774,0.213977 -0.473678,0.47793 v 1.593105 c 0,0.263954 0.2120728,0.477931 0.473678,0.477931 h 1.10525 V 16.188275 H 8.927714 c -0.087202,0 -0.1578928,-0.07133 -0.157893,-0.15931 v -0.955862 c 8e-7,-0.08798 0.070692,-0.159309 0.157893,-0.159309 H 9.87507 c 0.087202,-10e-7 0.157893,0.07132 0.157894,0.159309 v 1.911725 c -10e-7,0.08798 -0.070692,0.15931 -0.157894,0.159309 H 8.138251 v 0.637243 h 2.052606 c 0.261606,0 0.47368,-0.213978 0.473679,-0.477933 z m 0,3.66414 H 8.296143 c -0.2616056,0 -0.4736785,0.213978 -0.473678,0.477932 v 2.071034 h 0.631571 v -1.752414 c 2e-7,-0.08798 0.070691,-0.15931 0.157893,-0.15931 h 0.315785 v 1.911724 h 0.631571 v -1.911724 h 0.473679 v 1.911724 h 0.631572 z M 7.033,16.188275 H 6.085642 c -0.087201,-1e-6 -0.1578908,-0.07133 -0.157891,-0.15931 v -0.955862 c 8e-7,-0.08798 0.07069,-0.159308 0.157891,-0.159309 H 7.033 c 0.087202,-10e-7 0.1578932,0.07132 0.157894,0.159309 v 0.955862 c -2e-7,0.08798 -0.070692,0.159311 -0.157894,0.15931 z m -1.263142,2.867588 h 0.947357 c 0.087201,0 0.1578918,0.07133 0.157892,0.15931 v 0.955861 c 9e-7,0.08798 -0.07069,0.159312 -0.157892,0.159312 H 5.769858 c -0.087203,1e-6 -0.1578959,-0.07133 -0.157895,-0.159312 v -0.955861 c 2e-7,-0.08798 0.070692,-0.159311 0.157895,-0.15931 z" />
	<path
		fill="#bebebe"
		fill-rule="evenodd"
		d="M19.907552 9.5935985c-1.4222 0 .765045-8.0525931.765045-8.0525931h-1.461434s-.598303 1.892998-.990635 4.0017761h-1.265267c.03923-.431565.04904-.872935.04904-1.314308-.05884-3.46232206-2.089162-2.8149751-3.001332-2.0205061a5.0512602 5.0512602 0 0 0-1.598748 3.2955801l.67677-.0098s.460989-2.0597361 1.873381-2.0597361c1.422199 0-.765046 8.0427846-.765046 8.0427846h1.461432s.755238-2.1480125 1.127953-4.5608466h1.206417c-.06865.61792-.08827 1.3045001-.07847 1.942037.05886 3.4721286 2.079353 2.7266996 2.981715 1.9322306.912169-.7944706 1.588941-2.4716856 1.579132-3.2857726l-.696387.0098c0 .05886-.441373 2.079354-1.863574 2.079354z" />
	<path
		fill="#bebebe"
		d="m 14.264762,13.819328 h 6.970339 a 1.4936441,1.4936441 0 0 1 1.493644,1.493644 v 1.991526 h -3.485169 v -0.497882 h -2.987288 v 0.497882 h -3.48517 v -1.991526 a 1.4936441,1.4936441 0 0 1 1.493644,-1.493644 m 2.987288,3.48517 h 0.995763 V 18.30026 H 17.25205 v -0.995762 m -4.480932,0.497882 h 3.48517 v 0.49788 l 0.995762,0.995764 h 0.995763 l 0.995763,-0.995764 v -0.49788 h 3.485169 v 3.98305 h -9.957627 z" />
</svg>
