<svg xmlns="http://www.w3.org/2000/svg" width="24" height="24">
	<path fill="#bebebe" d="M6.4338165 1.6074804a4.9014202 4.9014202 0 0 1 4.9014225 4.9014199 4.9014202 4.9014202 0 0 1-4.9014225 4.9014207c-2.2546531 0-4.1417001-1.5096389-4.724969-3.5633317l1.8772439.7744241c.127438.6322829.6911 1.112622 1.3625951 1.112622.764622 0 1.387102-.62248 1.387102-1.387101v-.06372l1.666483-1.1910461h.03921c1.019495 0 1.8478357-.828341 1.8478357-1.847836 0-1.0194949-.8283407-1.847836-1.8478357-1.847836s-1.852736.8283411-1.852736 1.847836v.02451l-1.161637 1.6958919-.07843-.0048c-.289184 0-.558762.08823-.7793271.24017l-2.6369619-1.0833c.210761-2.5242321 2.3183719-4.509308 4.90142-4.509308m-1.823328 7.4354541c.392113.161748.843044-.0196 1.004791-.411719.161747-.392112-.02451-.838143-.406818-.999889l-.627379-.259791c.240169-.08823.509748-.09313.764621.01469.259775.102926.460734.303887.563663.563664.107831.254872.107831.539156 0 .794028-.21076.529361-.833241.784236-1.362594.563672-.2450711-.1029309-.4313251-.2891839-.5342551-.5097479l.5979731.245072m4.6661512-3.7986001c0 .681298-.5538602 1.235158-1.2351572 1.235158-.676396 0-1.230256-.55386-1.230256-1.235158a1.225355 1.225355 0 0 1 1.230256-1.2302561c.681297 0 1.2351572.5538591 1.2351572 1.2302561m-2.1566242 0c0 .509748.411719.926368.926369.926368.509747 0 .921466-.41662.921466-.926368 0-.509746-.411719-.92637-.921466-.92637-.51465 0-.926369.4166239-.926369.92637zM16.421 22.458995H7.579a.9473571.95586228 0 0 1-.947357-.955861v-7.96552a.9473571.95586228 0 0 1 .947357-.955861h8.842a.9473571.95586228 0 0 1 .947357.955861v7.96552a.9473571.95586228 0 0 1-.947357.955861zM7.894785 20.38796a.47367853.47793111 0 0 0 .4736801.477932h1.7368199v-.637241H8.6842501a.15789286.15931038 0 0 1-.1578931-.159312v-.955861a.15789286.15931038 0 0 1 .157893-.15931h1.421035v-.637242H8.3684651a.47367853.47793111 0 0 0-.4736801.477932zm2.526286-5.735174a.47367853.47793111 0 0 0-.4736776-.47793H8.3684651a.47367853.47793111 0 0 0-.4736801.47793v1.593105a.47367853.47793111 0 0 0 .4736801.477931h1.105249v-.637242h-.789464a.15789286.15931038 0 0 1-.157893-.15931v-.955862a.15789286.15931038 0 0 1 .157893-.159309h.947357a.15789286.15931038 0 0 1 .1578916.159309v1.911725a.15789286.15931038 0 0 1-.1578917.159309H7.8947849v.637243h2.0526085a.47367853.47793111 0 0 0 .4736776-.477933zm0 4.142072v1.593102a.47367853.47793111 0 0 0 .473678.477932h1.578929a.47367853.47793111 0 0 0 .473679-.477932v-1.593102a.47367853.47793111 0 0 0-.473679-.477932h-1.578929a.47367853.47793111 0 0 0-.473678.477932zm2.842072-4.142072a.47367853.47793111 0 0 0-.473679-.47793h-1.578928a.47367853.47793111 0 0 0-.47368.47793v1.593105a.47367853.47793111 0 0 0 .47368.477931h1.578928a.47367853.47793111 0 0 0 .473679-.477931zm2.842071 0a.47367853.47793111 0 0 0-.473679-.47793h-1.578928a.47367853.47793111 0 0 0-.473678.47793v1.593105a.47367853.47793111 0 0 0 .473678.477931h1.10525v-.637242h-.789465a.15789286.15931038 0 0 1-.157893-.15931v-.955862a.15789286.15931038 0 0 1 .157893-.159309h.947356a.15789286.15931038 0 0 1 .157894.159309v1.911725a.15789286.15931038 0 0 1-.157894.159309h-1.736819v.637243h2.052606a.47367853.47793111 0 0 0 .473679-.477933zm0 3.66414h-2.368393a.47367853.47793111 0 0 0-.473678.477932v2.071034h.631571v-1.752414a.15789286.15931038 0 0 1 .157893-.15931h.315785v1.911724h.631571v-1.911724h.473679v1.911724h.631572zm-3.631536-2.230346h-.947358a.15789286.15931038 0 0 1-.157891-.15931v-.955862a.15789286.15931038 0 0 1 .157891-.159309h.947358a.15789286.15931038 0 0 1 .157894.159309v.955862a.15789286.15931038 0 0 1-.157894.15931zm-1.263142 2.867588h.947357a.15789286.15931038 0 0 1 .157892.15931v.955861a.15789286.15931038 0 0 1-.157892.159312h-.947357a.15789286.15931038 0 0 1-.157895-.159312v-.955861a.15789286.15931038 0 0 1 .157895-.15931z"/>
	<path fill="#bebebe" d="M19.907552 9.5935985c-1.4222 0 .765045-8.0525931.765045-8.0525931h-1.461434s-.598303 1.892998-.990635 4.0017761h-1.265267c.03923-.431565.04904-.872935.04904-1.314308-.05884-3.46232206-2.089162-2.8149751-3.001332-2.0205061a5.0512602 5.0512602 0 0 0-1.598748 3.2955801l.67677-.0098s.460989-2.0597361 1.873381-2.0597361c1.422199 0-.765046 8.0427846-.765046 8.0427846h1.461432s.755238-2.1480125 1.127953-4.5608466h1.206417c-.06865.61792-.08827 1.3045001-.07847 1.942037.05886 3.4721286 2.079353 2.7266996 2.981715 1.9322306.912169-.7944706 1.588941-2.4716856 1.579132-3.2857726l-.696387.0098c0 .05886-.441373 2.079354-1.863574 2.079354z" fill-rule="evenodd"/>
</svg>
