<?xml version="1.0" encoding="UTF-8" standalone="no"?>
<!-- Created with Inkscape (http://www.inkscape.org/) -->

<svg
   xmlns:dc="http://purl.org/dc/elements/1.1/"
   xmlns:cc="http://creativecommons.org/ns#"
   xmlns:rdf="http://www.w3.org/1999/02/22-rdf-syntax-ns#"
   xmlns:svg="http://www.w3.org/2000/svg"
   xmlns="http://www.w3.org/2000/svg"
   xmlns:sodipodi="http://sodipodi.sourceforge.net/DTD/sodipodi-0.dtd"
   xmlns:inkscape="http://www.inkscape.org/namespaces/inkscape"
   width="24"
   height="24"
   viewBox="0 0 6.3499998 6.3499998"
   version="1.1"
   id="svg893"
   inkscape:version="0.92.3 (2405546, 2018-03-11)"
   sodipodi:docname="a.svg">
  <defs
     id="defs887" />
  <sodipodi:namedview
     id="base"
     pagecolor="#ffffff"
     bordercolor="#666666"
     borderopacity="1.0"
     inkscape:pageopacity="0.0"
     inkscape:pageshadow="2"
     inkscape:zoom="22.4"
     inkscape:cx="13.004894"
     inkscape:cy="8.5562624"
     inkscape:document-units="mm"
     inkscape:current-layer="layer1"
     showgrid="false"
     units="px"
     inkscape:window-width="1920"
     inkscape:window-height="962"
     inkscape:window-x="0"
     inkscape:window-y="30"
     inkscape:window-maximized="1" />
  <metadata
     id="metadata890">
    <rdf:RDF>
      <cc:Work
         rdf:about="">
        <dc:format>image/svg+xml</dc:format>
        <dc:type
           rdf:resource="http://purl.org/dc/dcmitype/StillImage" />
        <dc:title></dc:title>
      </cc:Work>
    </rdf:RDF>
  </metadata>
  <g
     inkscape:label="Layer 1"
     inkscape:groupmode="layer"
     id="layer1"
     transform="translate(0,-290.65)">
    <g
       id="g988"
       transform="matrix(0.14071938,0,0,0.14071938,1.7798685,252.35786)">
      <path
         style="fill:#a6cf67;stroke-width:0.35277778"
         d="m 6.1662823,316.91214 -1.5632691,-0.33016 -2.2080817,-0.7348 -2.2080816,-0.7348 -2.1634232,-1.39829 -2.1634227,-1.39829 -1.7291961,-1.72919 -1.729196,-1.7292 -1.4238323,-2.20294 -1.4238326,-2.20295 -0.912006,-2.84988 -0.912006,-2.84989 -0.189144,-2.86016 -0.189145,-2.86017 0.619334,-2.78428 0.619334,-2.78428 0.837786,-1.89466 0.8377852,-1.89466 1.6093734,-2.25533 1.6093733,-2.25534 2.1264185,-1.76962 2.1264186,-1.76963 2.12318598,-1.07178 2.12318602,-1.07178 2.6647031,-0.68151 2.6647031,-0.68152 h 2.7093598 2.70936 l 2.720073,0.69568 2.720073,0.69568 2.539831,1.32559 2.53983,1.32559 2.679153,2.66498 2.679157,2.66497 1.472339,2.98667 1.472336,2.98667 0.516689,2.46945 0.516685,2.46944 0.0061,2.22342 0.0061,2.22341 -0.575219,2.53909 -0.575214,2.53908 -0.835311,1.89466 -0.835311,1.89467 -1.565984,2.19452 -1.565984,2.19453 -1.336548,1.17351 -1.336552,1.17351 -2.097471,1.35566 -2.097472,1.35566 -2.849884,0.90625 -2.849884,0.90625 -3.175,0.13317 -3.1749999,0.13316 -1.5632691,-0.33016 z"
         id="path992"
         inkscape:connector-curvature="0" />
      <path
         style="fill:#211d1e;stroke-width:0.35277778"
         d="m 4.3781625,316.3638 -1.9402778,-0.50957 -2.62710333,-1.2847 -2.62710297,-1.2847 -2.877457,-2.85682 -2.8774567,-2.85681 -1.2811091,-2.64584 -1.2811096,-2.64583 -0.534469,-2.10259 -0.53447,-2.10259 v -3.37954 -3.37954 l 0.53447,-2.10259 0.534469,-2.10259 1.2845995,-2.64584 1.2845993,-2.64583 2.8552366,-2.86388 2.8552366,-2.86389 2.49998901,-1.25666 2.49998939,-1.25666 2.2625107,-0.60512 2.262511,-0.60512 h 3.3513889 3.351389 l 2.262511,0.60512 2.262511,0.60512 2.3236,1.18494 2.3236,1.18493 1.693076,1.41892 1.693072,1.41893 1.418926,1.69307 1.418925,1.69308 1.184931,2.3236 1.184931,2.3236 0.58378,2.25287 0.583777,2.25288 0.01856,3.00825 0.01856,3.00824 -0.430555,2.11667 -0.430558,2.11666 -1.430898,2.99862 -1.430902,2.99861 -2.861437,2.85523 -2.861437,2.85524 -2.645834,1.2846 -2.645833,1.2846 -2.10259,0.53447 -2.102556,0.53447 -3.5418537,-0.0232 -3.541854,-0.0232 z m 1.1520625,-15.77156 0.6783543,-2.04007 3.7423715,0.0998 3.7423712,0.0998 0.738022,1.94028 0.738021,1.94028 1.836343,0.10663 1.836344,0.10663 v -0.1097 -0.1097 l -3.501866,-9.16915 -3.501866,-9.16916 H 9.9732827 8.1082453 l -3.4488805,9.17223 -3.4488804,9.17222 -0.00366,0.10663 -0.00366,0.10663 1.8243539,-0.10663 1.8243543,-0.10663 z m 1.7570024,-4.92729 0.1623289,-0.44098 1.1495895,-3.47068 1.1495896,-3.47069 0.2806716,0.29569 0.280672,0.29568 1.058984,2.99862 1.058985,2.99861 0.246134,0.61736 0.246134,0.61736 H 10.022607 7.1248981 Z"
         id="path990"
         inkscape:connector-curvature="0" />
    </g>
  </g>
</svg>
