<?xml version="1.0" encoding="UTF-8" standalone="no"?>
<!-- Created with Inkscape (http://www.inkscape.org/) -->

<svg
   xmlns:dc="http://purl.org/dc/elements/1.1/"
   xmlns:cc="http://creativecommons.org/ns#"
   xmlns:rdf="http://www.w3.org/1999/02/22-rdf-syntax-ns#"
   xmlns:svg="http://www.w3.org/2000/svg"
   xmlns="http://www.w3.org/2000/svg"
   xmlns:sodipodi="http://sodipodi.sourceforge.net/DTD/sodipodi-0.dtd"
   xmlns:inkscape="http://www.inkscape.org/namespaces/inkscape"
   width="24"
   height="24"
   viewBox="0 0 6.3499998 6.3499998"
   version="1.1"
   id="svg893"
   inkscape:version="0.92.3 (2405546, 2018-03-11)"
   sodipodi:docname="select.svg">
  <defs
     id="defs887" />
  <sodipodi:namedview
     id="base"
     pagecolor="#ffffff"
     bordercolor="#666666"
     borderopacity="1.0"
     inkscape:pageopacity="0.0"
     inkscape:pageshadow="2"
     inkscape:zoom="5.6"
     inkscape:cx="59.704827"
     inkscape:cy="-5.1985679"
     inkscape:document-units="mm"
     inkscape:current-layer="layer1"
     showgrid="false"
     units="px"
     inkscape:window-width="1920"
     inkscape:window-height="962"
     inkscape:window-x="0"
     inkscape:window-y="30"
     inkscape:window-maximized="1" />
  <metadata
     id="metadata890">
    <rdf:RDF>
      <cc:Work
         rdf:about="">
        <dc:format>image/svg+xml</dc:format>
        <dc:type
           rdf:resource="http://purl.org/dc/dcmitype/StillImage" />
        <dc:title></dc:title>
      </cc:Work>
    </rdf:RDF>
  </metadata>
  <g
     inkscape:label="Layer 1"
     inkscape:groupmode="layer"
     id="layer1"
     transform="translate(0,-290.65)">
    <g
       id="g1245"
       transform="matrix(0.27059109,0,0,0.27059109,-3.352606,213.85654)">
      <path
         style="fill:#08c9f9;stroke-width:0.35277775"
         d="m 14.751309,300.11592 c -3.132272,-1.54586 -3.15384,-7.62523 -0.03231,-9.1065 1.975693,-0.93752 17.624467,-0.84738 19.076632,0.10989 2.878464,1.8975 2.702789,7.55245 -0.278572,8.96719 -1.724478,0.81832 -17.11836,0.84245 -18.765752,0.0294 z"
         id="path1249"
         inkscape:connector-curvature="0" />
      <path
         style="fill:#0c182b;stroke-width:0.35277775"
         d="m 14.884423,299.35369 c -2.524906,-1.5664 -2.334986,-6.47242 0.302777,-7.82138 1.057344,-0.54073 16.804318,-0.54073 17.861661,0 2.811904,1.43802 2.811904,6.59329 0,8.03131 -1.352754,0.6918 -17.002458,0.51094 -18.164438,-0.20993 z m 11.350274,-3.96555 v -2.1001 l -2.645833,0.9516 c -1.455208,0.52338 -2.645833,1.03355 -2.645833,1.13372 0,0.13148 4.164204,1.80454 5.203472,2.09061 0.04851,0.0134 0.08819,-0.92077 0.08819,-2.07583 z"
         id="path1247"
         inkscape:connector-curvature="0" />
    </g>
  </g>
</svg>
