<?xml version="1.0" encoding="UTF-8" standalone="no"?>
<!-- Created with Inkscape (http://www.inkscape.org/) -->

<svg
   xmlns:dc="http://purl.org/dc/elements/1.1/"
   xmlns:cc="http://creativecommons.org/ns#"
   xmlns:rdf="http://www.w3.org/1999/02/22-rdf-syntax-ns#"
   xmlns:svg="http://www.w3.org/2000/svg"
   xmlns="http://www.w3.org/2000/svg"
   xmlns:sodipodi="http://sodipodi.sourceforge.net/DTD/sodipodi-0.dtd"
   xmlns:inkscape="http://www.inkscape.org/namespaces/inkscape"
   width="24"
   height="24"
   viewBox="0 0 6.3499998 6.3499998"
   version="1.1"
   id="svg893"
   inkscape:version="0.92.3 (2405546, 2018-03-11)"
   sodipodi:docname="trigger-left.svg">
  <defs
     id="defs887" />
  <sodipodi:namedview
     id="base"
     pagecolor="#ffffff"
     bordercolor="#666666"
     borderopacity="1.0"
     inkscape:pageopacity="0.0"
     inkscape:pageshadow="2"
     inkscape:zoom="5.6"
     inkscape:cx="59.704827"
     inkscape:cy="-5.1985679"
     inkscape:document-units="mm"
     inkscape:current-layer="layer1"
     showgrid="false"
     units="px"
     inkscape:window-width="1920"
     inkscape:window-height="962"
     inkscape:window-x="0"
     inkscape:window-y="30"
     inkscape:window-maximized="1" />
  <metadata
     id="metadata890">
    <rdf:RDF>
      <cc:Work
         rdf:about="">
        <dc:format>image/svg+xml</dc:format>
        <dc:type
           rdf:resource="http://purl.org/dc/dcmitype/StillImage" />
        <dc:title></dc:title>
      </cc:Work>
    </rdf:RDF>
  </metadata>
  <g
     inkscape:label="Layer 1"
     inkscape:groupmode="layer"
     id="layer1"
     transform="translate(0,-290.65)">
    <g
       id="g1338"
       transform="matrix(0.23601641,0,0,0.23601641,-3.9252597,221.4327)">
      <path
         style="fill:#0cbfed;stroke-width:0.35277775"
         d="m 27.2105,316.65788 c -3.630813,-1.57983 -7.285031,-7.28767 -9.791815,-15.2947 -1.662954,-5.31171 -1.99471,-5.17613 12.665069,-5.17613 14.65978,0 14.328024,-0.13558 12.66507,5.17613 -3.802745,12.14651 -9.618097,17.87068 -15.538324,15.2947 z"
         id="path1342"
         inkscape:connector-curvature="0" />
      <path
         style="fill:#0c192b;stroke-width:0.35277775"
         d="m 27.172519,315.71954 c -3.257887,-1.61263 -6.542286,-6.7893 -8.893359,-14.01718 -1.408569,-4.33035 -1.438964,-4.18646 0.956678,-4.52892 5.621409,-0.80357 23.724305,-0.22217 23.724305,0.76194 0,1.04197 -2.236127,7.25289 -3.694323,10.2611 -3.353602,6.91839 -7.767578,9.66425 -12.093301,7.52306 z m 2.382069,-6.66523 c 0,-0.19403 -0.79375,-0.35278 -1.763889,-0.35278 H 26.02681 v -3.35139 c 0,-1.99907 -0.142349,-3.35139 -0.352778,-3.35139 -0.212786,0 -0.352777,1.46991 -0.352777,3.70417 v 3.70417 h 2.116666 c 1.175926,0 2.116667,-0.15679 2.116667,-0.35278 z m 2.822222,-2.99861 v -3.35139 h 1.234722 c 0.679097,0 1.234722,-0.15875 1.234722,-0.35278 0,-0.20771 -1.241662,-0.35278 -3.019431,-0.35278 -1.923121,0 -2.940268,0.12809 -2.801402,0.35278 0.119916,0.19403 0.764285,0.35278 1.431931,0.35278 h 1.213902 v 3.35139 c 0,1.99907 0.142349,3.35139 0.352778,3.35139 0.210429,0 0.352778,-1.35232 0.352778,-3.35139 z"
         id="path1340"
         inkscape:connector-curvature="0" />
    </g>
  </g>
</svg>
