<?xml version="1.0" encoding="UTF-8" standalone="no"?>
<!-- Created with Inkscape (http://www.inkscape.org/) -->

<svg
   xmlns:dc="http://purl.org/dc/elements/1.1/"
   xmlns:cc="http://creativecommons.org/ns#"
   xmlns:rdf="http://www.w3.org/1999/02/22-rdf-syntax-ns#"
   xmlns:svg="http://www.w3.org/2000/svg"
   xmlns="http://www.w3.org/2000/svg"
   xmlns:sodipodi="http://sodipodi.sourceforge.net/DTD/sodipodi-0.dtd"
   xmlns:inkscape="http://www.inkscape.org/namespaces/inkscape"
   width="24"
   height="24"
   viewBox="0 0 6.3499998 6.3499998"
   version="1.1"
   id="svg893"
   inkscape:version="0.92.3 (2405546, 2018-03-11)"
   sodipodi:docname="y.svg">
  <defs
     id="defs887" />
  <sodipodi:namedview
     id="base"
     pagecolor="#ffffff"
     bordercolor="#666666"
     borderopacity="1.0"
     inkscape:pageopacity="0.0"
     inkscape:pageshadow="2"
     inkscape:zoom="15.839192"
     inkscape:cx="21.756053"
     inkscape:cy="10.791844"
     inkscape:document-units="mm"
     inkscape:current-layer="layer1"
     showgrid="false"
     units="px"
     inkscape:window-width="1920"
     inkscape:window-height="962"
     inkscape:window-x="0"
     inkscape:window-y="30"
     inkscape:window-maximized="1" />
  <metadata
     id="metadata890">
    <rdf:RDF>
      <cc:Work
         rdf:about="">
        <dc:format>image/svg+xml</dc:format>
        <dc:type
           rdf:resource="http://purl.org/dc/dcmitype/StillImage" />
        <dc:title></dc:title>
      </cc:Work>
    </rdf:RDF>
  </metadata>
  <g
     inkscape:label="Layer 1"
     inkscape:groupmode="layer"
     id="layer1"
     transform="translate(0,-290.65)">
    <g
       id="g1123"
       transform="matrix(0.18800706,0,0,0.18800706,1.2315046,238.06639)">
      <path
         style="fill:#f6a941;stroke-width:0.26458332"
         d="m 7.1776808,313.17997 -1.061004,-0.21097 -1.5668785,-0.55071 -1.5668786,-0.55071 -1.4145143,-0.85729 -1.41451428,-0.85728 -1.30236062,-1.13928 -1.3023606,-1.13927 -1.3274269,-1.98467 -1.327427,-1.98467 -0.7163932,-2.17342 -0.7163933,-2.17342 -0.00592,-3.04271 -0.00592,-3.04271 0.7332557,-2.11412 0.7332557,-2.11413 0.9553628,-1.5727 0.9553628,-1.57269 1.4898936,-1.4899 1.48989353,-1.48989 1.57269677,-0.95536 1.572697,-0.95537 2.1141268,-0.73045 2.1141271,-0.73046 2.9104167,-0.0165 2.910417,-0.0165 1.984374,0.61456 1.984375,0.61457 1.786629,1.05114 1.786627,1.05115 1.43001,1.39613 1.430009,1.39614 1.085673,1.67974 1.085672,1.67975 0.681988,2.13741 0.681987,2.13741 0.14324,1.99947 0.143238,1.99947 -0.448927,2.23386 -0.448926,2.23387 -0.896073,1.85208 -0.896072,1.85209 -1.21303,1.52939 -1.21303,1.5294 -1.643467,1.22069 -1.643464,1.22069 -1.699448,0.77905 -1.699448,0.77904 -1.740136,0.36888 -1.740135,0.36888 -1.852083,-0.0244 -1.8520834,-0.0244 z"
         id="path1127"
         inkscape:connector-curvature="0" />
      <path
         style="fill:#211d1e;stroke-width:0.26458332"
         d="m 7.7220165,313.16721 -1.5750015,-0.24184 -0.93854,-0.30395 -0.93854,-0.30394 -1.7197916,-0.8706 -1.71979157,-0.8706 -1.26980573,-1.06419 -1.2698055,-1.0642 -1.0611019,-1.2698 -1.0611018,-1.26981 -1.0206371,-2.11667 -1.0206371,-2.11666 -0.3272621,-1.5875 -0.3272621,-1.5875 v -1.98438 -1.98437 l 0.3272621,-1.5875 0.3272621,-1.5875 1.0731754,-2.24896 1.0731754,-2.24896 2.1460776,-2.14143 2.14607741,-2.14142 1.98437489,-0.96473 1.9843749,-0.96473 1.7036181,-0.42767 1.7036179,-0.42768 2.1328407,-0.007 2.13284,-0.007 1.5875,0.32173 1.587499,0.32174 2.248959,1.07317 2.248958,1.07318 2.12907,2.14607 2.129073,2.14608 0.957244,1.85208 0.957244,1.85209 0.457933,1.71979 0.457933,1.71979 v 2.51354 2.51354 l -0.453843,1.69689 -0.453842,1.69688 -0.893895,1.7427 -0.893892,1.7427 -1.015743,1.26091 -1.015744,1.2609 -1.310367,1.08283 -1.310368,1.08282 -1.788779,0.90082 -1.788779,0.90081 -1.406516,0.36635 -1.406515,0.36635 -1.966774,0.1395 -1.9667729,0.13949 z m 3.8239595,-11.49052 v -2.77638 l 2.38125,-4.11897 2.38125,-4.11898 v -0.12993 -0.12993 l -1.368089,0.08 -1.368088,0.08 -1.588556,2.87636 -1.588555,2.87637 -0.365466,-0.49512 L 9.664256,295.325 8.3380999,292.8776 7.011944,290.43021 H 5.5747935 4.1376433 v 0.11626 0.11626 l 2.3812499,4.07571 2.3812499,4.07571 v 2.81948 2.81949 h 1.3229169 1.322916 z"
         id="path1125"
         inkscape:connector-curvature="0" />
    </g>
  </g>
</svg>
