<?xml version="1.0" encoding="UTF-8" standalone="no"?>
<!-- Created with Inkscape (http://www.inkscape.org/) -->

<svg
   xmlns:dc="http://purl.org/dc/elements/1.1/"
   xmlns:cc="http://creativecommons.org/ns#"
   xmlns:rdf="http://www.w3.org/1999/02/22-rdf-syntax-ns#"
   xmlns:svg="http://www.w3.org/2000/svg"
   xmlns="http://www.w3.org/2000/svg"
   xmlns:sodipodi="http://sodipodi.sourceforge.net/DTD/sodipodi-0.dtd"
   xmlns:inkscape="http://www.inkscape.org/namespaces/inkscape"
   width="24"
   height="24"
   viewBox="0 0 6.3499998 6.3499998"
   version="1.1"
   id="svg893"
   inkscape:version="0.92.3 (2405546, 2018-03-11)"
   sodipodi:docname="b.svg">
  <defs
     id="defs887" />
  <sodipodi:namedview
     id="base"
     pagecolor="#ffffff"
     bordercolor="#666666"
     borderopacity="1.0"
     inkscape:pageopacity="0.0"
     inkscape:pageshadow="2"
     inkscape:zoom="15.839192"
     inkscape:cx="21.756053"
     inkscape:cy="10.791844"
     inkscape:document-units="mm"
     inkscape:current-layer="layer1"
     showgrid="false"
     units="px"
     inkscape:window-width="1920"
     inkscape:window-height="962"
     inkscape:window-x="0"
     inkscape:window-y="30"
     inkscape:window-maximized="1" />
  <metadata
     id="metadata890">
    <rdf:RDF>
      <cc:Work
         rdf:about="">
        <dc:format>image/svg+xml</dc:format>
        <dc:type
           rdf:resource="http://purl.org/dc/dcmitype/StillImage" />
        <dc:title></dc:title>
      </cc:Work>
    </rdf:RDF>
  </metadata>
  <g
     inkscape:label="Layer 1"
     inkscape:groupmode="layer"
     id="layer1"
     transform="translate(0,-290.65)">
    <g
       id="g1024"
       transform="matrix(0.18832364,0,0,0.18832364,-6.3057562,241.6996)">
      <path
         style="fill:#e7325d;stroke-width:0.26458332"
         d="m 46.93938,293.20837 -1.5875,-0.32854 -1.406451,-0.55853 -1.406451,-0.55853 -1.490316,-0.95334 -1.490316,-0.95334 -1.37103,-1.4043 -1.371029,-1.40429 -0.938242,-1.54451 -0.938242,-1.54452 -0.728095,-2.11412 -0.728094,-2.11413 0.0059,-3.04271 0.0059,-3.04271 0.699886,-2.13741 0.699885,-2.13741 1.039158,-1.60778 1.039158,-1.60778 0.982151,-1.08712 0.98215,-1.08713 1.959663,-1.3107 1.959663,-1.3107 2.173422,-0.7159 2.173421,-0.71589 h 3.042708 3.042709 l 2.173421,0.71589 2.173422,0.7159 1.984183,1.3271 1.984185,1.3271 1.168108,1.37634 1.168112,1.37633 0.806553,1.32291 0.806551,1.32292 0.727297,2.11667 0.727297,2.11666 0.0013,3.04271 0.0013,3.04271 -0.728835,2.11413 -0.728834,2.11412 -0.965869,1.59004 -0.965872,1.59004 -1.672659,1.64818 -1.672659,1.64818 -2.435217,1.20217 -2.435217,1.20217 -1.9605,0.40314 -1.960501,0.40314 -1.479083,-0.0543 -1.479082,-0.0543 -1.5875,-0.32854 z"
         id="path1028"
         inkscape:connector-curvature="0" />
      <path
         style="fill:#211d1e;stroke-width:0.26458332"
         d="m 46.013338,292.93926 -1.455208,-0.38218 -1.984375,-0.96471 -1.984375,-0.96471 -2.146077,-2.14143 -2.146078,-2.14143 -1.067994,-2.24895 -1.067994,-2.24896 -0.325858,-1.42163 -0.325859,-1.42162 0.009,-2.41483 0.009,-2.41484 0.440997,-1.69863 0.440997,-1.69864 0.811576,-1.60865 0.811576,-1.60866 1.087752,-1.39878 1.087751,-1.39878 1.455209,-1.14493 1.455208,-1.14492 1.608657,-0.81083 1.608657,-0.81083 1.698635,-0.44836 1.698634,-0.44836 h 2.513541 2.513542 l 1.719792,0.452 1.719791,0.45199 1.726514,0.90505 1.726515,0.90505 1.263082,1.04375 1.263083,1.04375 1.061104,1.26981 1.061101,1.2698 1.018693,2.11667 1.018693,2.11667 0.28842,1.40208 0.28842,1.40209 v 2.44493 2.44493 l -0.400852,1.57694 -0.400852,1.57694 -0.963451,1.98438 -0.963448,1.98437 -2.141429,2.14143 -2.141426,2.14143 -1.984375,0.96345 -1.984375,0.96345 -1.576943,0.40085 -1.576943,0.40085 -2.65639,-0.0174 -2.65639,-0.0174 z m 7.759914,-9.73348 0.863752,-0.3609 0.71525,-0.85002 0.715251,-0.85003 v -1.46137 -1.46136 l -0.859896,-0.85707 -0.859896,-0.85706 -0.396875,-0.15945 -0.396875,-0.15946 0.463027,-0.29309 0.463026,-0.29309 0.396869,-0.76746 0.39687,-0.76746 v -1.03579 -1.03579 l -0.552529,-0.70243 -0.552528,-0.70243 -0.796779,-0.41203 -0.79678,-0.41203 -3.413192,-0.1518 -3.413192,-0.1518 v 7.05141 7.05141 h 3.580373 3.580373 z m -5.378664,-3.77494 v -2.01917 l 2.03159,0.13038 2.03159,0.13038 0.481952,0.59519 0.481951,0.59518 v 0.74524 0.74523 l -0.697139,0.54837 -0.69714,0.54837 H 50.21099 48.394588 Z m 0,-5.65374 v -1.85209 h 1.472602 1.472603 l 0.526697,0.28188 0.526697,0.28188 0.213315,0.57665 0.213315,0.57664 -0.241409,0.69251 -0.241409,0.6925 -0.660738,0.30106 -0.660738,0.30105 h -1.310468 -1.310467 z"
         id="path1026"
         inkscape:connector-curvature="0" />
    </g>
  </g>
</svg>
