<?xml version="1.0" encoding="UTF-8" standalone="no"?>
<!-- Created with Inkscape (http://www.inkscape.org/) -->

<svg
   xmlns:dc="http://purl.org/dc/elements/1.1/"
   xmlns:cc="http://creativecommons.org/ns#"
   xmlns:rdf="http://www.w3.org/1999/02/22-rdf-syntax-ns#"
   xmlns:svg="http://www.w3.org/2000/svg"
   xmlns="http://www.w3.org/2000/svg"
   xmlns:sodipodi="http://sodipodi.sourceforge.net/DTD/sodipodi-0.dtd"
   xmlns:inkscape="http://www.inkscape.org/namespaces/inkscape"
   width="24"
   height="24"
   viewBox="0 0 6.3499998 6.3499998"
   version="1.1"
   id="svg893"
   inkscape:version="0.92.3 (2405546, 2018-03-11)"
   sodipodi:docname="x.svg">
  <defs
     id="defs887" />
  <sodipodi:namedview
     id="base"
     pagecolor="#ffffff"
     bordercolor="#666666"
     borderopacity="1.0"
     inkscape:pageopacity="0.0"
     inkscape:pageshadow="2"
     inkscape:zoom="15.839192"
     inkscape:cx="21.756053"
     inkscape:cy="10.791844"
     inkscape:document-units="mm"
     inkscape:current-layer="layer1"
     showgrid="false"
     units="px"
     inkscape:window-width="1920"
     inkscape:window-height="962"
     inkscape:window-x="0"
     inkscape:window-y="30"
     inkscape:window-maximized="1" />
  <metadata
     id="metadata890">
    <rdf:RDF>
      <cc:Work
         rdf:about="">
        <dc:format>image/svg+xml</dc:format>
        <dc:type
           rdf:resource="http://purl.org/dc/dcmitype/StillImage" />
        <dc:title></dc:title>
      </cc:Work>
    </rdf:RDF>
  </metadata>
  <g
     inkscape:label="Layer 1"
     inkscape:groupmode="layer"
     id="layer1"
     transform="translate(0,-290.65)">
    <g
       id="g1060"
       transform="matrix(0.18854225,0,0,0.18854225,1.2849128,238.19264)">
      <path
         style="fill:#3bbfee;stroke-width:0.26458332"
         d="m 6.7821332,311.53932 -1.5874999,-0.36622 -1.190625,-0.47568 -1.1906249,-0.47568 -1.5132335,-0.88253 -1.51323351,-0.88252 -1.73779489,-1.75498 -1.7377946,-1.75498 -1.1812499,-2.40429 -1.1812498,-2.40429 -0.3819067,-1.85209 -0.3819067,-1.85208 0.08892,-2.24896 0.08892,-2.24896 0.7098516,-2.11412 0.7098516,-2.11413 0.9382419,-1.54451 0.9382419,-1.54452 1.3766791,-1.41008 1.37667891,-1.41008 1.61959809,-1.04679 1.6195984,-1.0468 2.3298527,-0.76365 2.3298527,-0.76365 2.9104163,0.0158 2.910417,0.0158 2.173421,0.72032 2.173422,0.72033 1.959663,1.3107 1.959662,1.3107 0.982151,1.08713 0.982152,1.08712 1.039156,1.60778 1.039159,1.60778 0.703374,2.13741 0.703374,2.13741 0.0084,3.04271 0.0084,3.04271 -0.711766,2.13741 -0.711766,2.13742 -1.067874,1.65221 -1.067875,1.6522 -1.296897,1.2969 -1.296897,1.2969 -1.579761,1.02105 -1.579762,1.02105 -2.20986,0.73049 -2.209861,0.73049 -2.38125,0.10397 -2.3812496,0.10397 -1.5874999,-0.36622 z"
         id="path1064"
         inkscape:connector-curvature="0" />
      <path
         style="fill:#221e1f;stroke-width:0.26458332"
         d="m 5.8560916,311.23052 -1.4552083,-0.38218 -1.9843749,-0.96471 -1.98437489,-0.96471 -2.14142731,-2.14143 -2.1414273,-2.14143 -0.9634495,-1.98437 -0.9634493,-1.98438 -0.4008523,-1.57694 -0.4008523,-1.57694 v -2.53466 -2.53465 l 0.4008523,-1.57695 0.4008523,-1.57694 0.9634493,-1.98437 0.9634495,-1.98438 2.1414273,-2.12907 2.14142731,-2.12907 1.88498499,-0.97674 1.8849852,-0.97674 1.6868896,-0.4363 1.6868899,-0.4363 h 2.5135418 2.513541 l 1.646945,0.42607 1.646945,0.42606 1.660347,0.83767 1.660346,0.83767 1.398781,1.08775 1.398778,1.08775 1.160145,1.47258 1.160142,1.47258 0.793689,1.57013 0.793687,1.57013 0.456239,1.71979 0.456237,1.71979 -0.006,2.51354 -0.006,2.51354 -0.451948,1.7198 -0.451951,1.71979 -0.957244,1.85208 -0.957244,1.85208 -2.129072,2.12907 -2.129071,2.12908 -1.852083,0.94944 -1.852083,0.94945 -1.736696,0.42721 -1.736685,0.42721 -2.6289289,-0.0174 -2.6289293,-0.0174 z m 2.3557829,-11.76778 1.4297413,-2.38635 0.2156429,-0.13328 0.2156423,-0.13327 1.661908,2.51779 1.661907,2.51778 1.551784,0.006 1.551784,0.006 -0.474057,-0.72761 -0.474058,-0.7276 -2.080406,-2.85256 -2.080406,-2.85256 0.185326,-0.32244 0.185326,-0.32244 2.074124,-2.83059 2.074125,-2.83059 v -0.29147 -0.29146 l -1.497975,0.0793 -1.497975,0.0793 -1.347562,2.16203 -1.347563,2.16204 -0.165607,0.1656 -0.1656077,0.16561 L 8.3775418,290.22819 6.867115,287.8344 H 5.4355618 4.0040083 v 0.22494 0.22494 l 2.2574725,3.22058 2.2574728,3.22057 -2.2148635,3.23522 -2.2148632,3.23521 -0.1905158,0.33073 -0.1905159,0.33073 1.536969,-0.004 1.536969,-0.004 z"
         id="path1062"
         inkscape:connector-curvature="0" />
    </g>
  </g>
</svg>
