<?xml version="1.0" encoding="UTF-8"?>
<svg xmlns="http://www.w3.org/2000/svg" xmlns:xlink="http://www.w3.org/1999/xlink" version="1.1" width="24" height="24" viewBox="0 0 24 24">
	<path fill="#7ab547" d="m 9.285146,9.2120017 c 1.834149,0 3.506055,1.3759993 3.576177,1.4346663 0.287359,0.239999 0.318982,0.658667 0.07287,0.938665 -0.246113,0.28 -0.679212,0.310667 -0.967946,0.07332 -0.01376,-0.01068 -1.361174,-1.111999 -2.6811025,-1.111999 -0.011002,-0.0014 -0.023374,0.0027 -0.03437,0.0027 v 2.762666 c 0.2832343,0.08267 0.5857172,0.141332 0.9280725,0.141332 1.963392,0 4.284263,-1.534666 5.677061,-2.715998 -1.553665,-1.2399973 -4.193519,-2.7373293 -6.1239103,-2.7373293 -0.1567415,0 -0.3189822,0.018667 -0.4812232,0.037334 v 1.1773327 c 0.011001,0 0.021998,-0.00266 0.03437,-0.00266 z" />
	<path fill="#7ab547" d="M 22.312548,4.0000056 H 9.9382345 c -0.3794785,0 -0.6874614,0.2986664 -0.6874614,0.666666 v 2.0333318 c 0.1608663,-0.014669 0.321732,-0.033336 0.4812231,-0.033336 2.7333488,0 6.1266608,2.194665 7.6225768,3.5786646 0.136117,0.123999 0.211739,0.297332 0.213112,0.477332 0.0014,0.180001 -0.07425,0.354668 -0.206237,0.481334 -0.386353,0.366666 -3.869035,3.583999 -7.183977,3.583999 -0.3313559,0 -0.6365889,-0.03867 -0.9280728,-0.09467 v 1.233333 c 0.1691157,0.03733 0.3368561,0.07333 0.482598,0.07333 1.9166438,0 7.5703288,-1.515999 9.3494818,-3.203998 0.269485,-0.257333 0.708085,-0.251999 0.97207,0.01068 0.265361,0.262666 0.259861,0.685333 -0.01102,0.942667 -2.142131,2.034665 -8.129921,3.583997 -10.3105518,3.583997 -0.1526166,0 -0.3203569,-0.04532 -0.4812232,-0.06934 v 2.069332 c 0,0.367999 0.3079829,0.666666 0.6874618,0.666666 H 22.312536 c 0.37948,0 0.687462,-0.298667 0.687462,-0.666666 V 4.6666716 c 0,-0.3679996 -0.307982,-0.666666 -0.687462,-0.666666 z" />
	<path fill="#7ab547" d="M 7.005523,11.369333 C 7.5004953,11.045334 8.3831964,10.562667 9.2507731,10.549334 V 9.2146688 C 7.4289993,9.2320028 5.7790911,10.588001 5.70897,10.645334 5.4958569,10.822668 5.4161113,11.108 5.5068563,11.365333 c 0.043998,0.128 1.0270679,2.809332 3.7439168,3.327998 v -1.379998 c -1.2319318,-0.357334 -1.9345176,-1.356 -2.2452501,-1.944 z" />
	<path fill="#7ab547" d="m 2.754259,10.945335 c 0.4949729,-0.257333 1.0009446,-0.536 1.5082918,-0.817334 C 5.9715805,9.1826688 7.7314828,8.2173359 9.2507731,8.0373361 V 6.7000034 C 7.4070005,6.8653367 5.4656086,7.9280026 3.5819628,8.9706686 2.83538,9.3826684 2.0984213,9.7906681 1.3862101,10.128001 c -0.1856142,0.088 -0.3217314,0.253333 -0.36848,0.449334 -0.0467458,0.195998 0,0.401333 0.1278687,0.559998 2.3359957,2.894665 5.6564355,5.778663 8.1051743,6.126663 V 15.926664 C 7.6256136,15.575997 5.0270079,13.593332 2.754259,10.945335 Z" />
</svg>
