<?xml version="1.0" encoding="UTF-8" standalone="no"?>
<svg
   xmlns:osb="http://www.openswatchbook.org/uri/2009/osb"
   xmlns:dc="http://purl.org/dc/elements/1.1/"
   xmlns:cc="http://creativecommons.org/ns#"
   xmlns:rdf="http://www.w3.org/1999/02/22-rdf-syntax-ns#"
   xmlns:svg="http://www.w3.org/2000/svg"
   xmlns="http://www.w3.org/2000/svg"
   xmlns:xlink="http://www.w3.org/1999/xlink"
   xmlns:sodipodi="http://sodipodi.sourceforge.net/DTD/sodipodi-0.dtd"
   xmlns:inkscape="http://www.inkscape.org/namespaces/inkscape"
   version="1.1"
   width="128"
   height="128"
   id="svg5157"
   sodipodi:docname="128.svg"
   inkscape:version="0.92.3 (2405546, 2018-03-11)">
  <sodipodi:namedview
     pagecolor="#ffffff"
     bordercolor="#666666"
     borderopacity="1"
     objecttolerance="10"
     gridtolerance="10"
     guidetolerance="10"
     inkscape:pageopacity="0"
     inkscape:pageshadow="2"
     inkscape:window-width="1765"
     inkscape:window-height="1064"
     id="namedview39"
     showgrid="false"
     inkscape:zoom="3.6875001"
     inkscape:cx="-10.822465"
     inkscape:cy="66.722643"
     inkscape:window-x="2013"
     inkscape:window-y="102"
     inkscape:window-maximized="0"
     inkscape:current-layer="svg5157"
     inkscape:pagecheckerboard="true" />
  <defs
     id="defs5159">
    <linearGradient
       id="linearGradient3820-7-2-8-6">
      <stop
         id="stop3822-2-6-5-0"
         style="stop-color:#3d3d3d;stop-opacity:1"
         offset="0" />
      <stop
         id="stop3864-8-7-4-1"
         style="stop-color:#686868;stop-opacity:0.49803922"
         offset="0.5" />
      <stop
         id="stop3824-1-2-6-7"
         style="stop-color:#686868;stop-opacity:0"
         offset="1" />
    </linearGradient>
    <linearGradient
       id="linearGradient4526"
       osb:paint="solid">
      <stop
         style="stop-color:#ffffff;stop-opacity:1;"
         offset="0"
         id="stop4528" />
    </linearGradient>
    <radialGradient
       xlink:href="#linearGradient3820-7-2-8-6"
       id="radialGradient3163-6"
       gradientUnits="userSpaceOnUse"
       gradientTransform="matrix(0.6869404,0,0,0.21461693,-4.02174,68.573331)"
       cx="99.157013"
       cy="186.17059"
       fx="99.157013"
       fy="186.17059"
       r="62.769119" />
    <linearGradient
       inkscape:collect="always"
       xlink:href="#linearGradient875"
       id="linearGradient877"
       x1="64.5"
       y1="13.998179"
       x2="64.5"
       y2="117.93038"
       gradientUnits="userSpaceOnUse" />
    <linearGradient
       inkscape:collect="always"
       id="linearGradient875">
      <stop
         style="stop-color:#a56de2;stop-opacity:1"
         offset="0"
         id="stop871" />
      <stop
         style="stop-color:#7239b3;stop-opacity:1"
         offset="1"
         id="stop873" />
    </linearGradient>
    <linearGradient
       inkscape:collect="always"
       xlink:href="#linearGradient961"
       id="linearGradient963"
       x1="64.5"
       y1="14.98848"
       x2="64.5"
       y2="117.93021"
       gradientUnits="userSpaceOnUse" />
    <linearGradient
       inkscape:collect="always"
       id="linearGradient961">
      <stop
         style="stop-color:#ffffff;stop-opacity:0.78538811"
         offset="0"
         id="stop957" />
      <stop
         id="stop973"
         offset="0.49059841"
         style="stop-color:#ffffff;stop-opacity:0.15068494" />
      <stop
         style="stop-color:#ffffff;stop-opacity:0.35159817"
         offset="1"
         id="stop959" />
    </linearGradient>
  </defs>
  <metadata
     id="metadata5162">
    <rdf:RDF>
      <cc:Work
         rdf:about="">
        <dc:format>image/svg+xml</dc:format>
        <dc:type
           rdf:resource="http://purl.org/dc/dcmitype/StillImage" />
        <dc:title></dc:title>
      </cc:Work>
    </rdf:RDF>
  </metadata>
  <g
     transform="translate(1e-6,-0.0028933)"
     id="g978"
     inkscape:label="icon_bg"
     style="display:inline">
    <path
       inkscape:connector-curvature="0"
       inkscape:label="shadow"
       d="m 107.21186,108.52868 a 43.118644,13.471312 0 1 1 -86.237286,0 43.118644,13.471312 0 1 1 86.237286,0 z"
       id="path3818-0-5-0-2"
       style="display:inline;fill:url(#radialGradient3163-6);fill-opacity:1;stroke:none" />
    <path
       inkscape:label="bg"
       inkscape:connector-curvature="0"
       d="m 64.5,13.998179 c -28.691806,0 -52.000001,23.308189 -52.000001,51.999997 0,28.691808 23.308195,52.000014 52.000001,52.000004 28.691802,0 52.00002,-23.308196 52,-52.000004 0,-28.691808 -23.308198,-51.999997 -52,-51.999997 z"
       id="path2555-7-1-7"
       style="color:#000000;display:inline;overflow:visible;visibility:visible;opacity:1;fill:url(#linearGradient877);fill-opacity:1;fill-rule:nonzero;stroke:#452981;stroke-width:1;stroke-linecap:round;stroke-linejoin:round;stroke-miterlimit:4;stroke-dasharray:none;stroke-dashoffset:0;stroke-opacity:0.66666667;marker:none;enable-background:accumulate" />
    <path
       inkscape:label="edge_highlight"
       inkscape:connector-curvature="0"
       style="color:#000000;display:inline;overflow:visible;visibility:visible;opacity:1;fill:none;fill-opacity:1;fill-rule:nonzero;stroke:url(#linearGradient963);stroke-width:1;stroke-linecap:round;stroke-linejoin:round;stroke-miterlimit:4;stroke-dasharray:none;stroke-dashoffset:0;stroke-opacity:0.21461188;marker:none;enable-background:accumulate"
       id="path950"
       d="m 64.5,14.98848 c -28.145295,0 -51.009524,22.864223 -51.009524,51.009521 0,28.145297 22.864229,51.009529 51.009524,51.009519 28.145292,0 51.00954,-22.864222 51.00952,-51.009519 C 115.50952,37.852703 92.645292,14.98848 64.5,14.98848 Z" />
  </g>
  <g
     id="g866"
     inkscape:label="controller"
     transform="translate(0.4999995,3.2490895)">
    <path
       id="path842"
       inkscape:connector-curvature="0"
       style="opacity:0.07000002;fill:#000000;fill-opacity:1;stroke:#000000;stroke-width:1;stroke-miterlimit:4;stroke-dasharray:none;stroke-opacity:1"
       d="m 51.499711,60.312442 a 4.6927512,4.6928052 0 0 1 -4.686626,4.687554 4.6927512,4.6928052 0 0 1 -4.6875,-4.687554 4.6927512,4.6928052 0 0 1 4.6875,-4.687554 4.6927512,4.6928052 0 0 1 4.686626,4.687554 z m 49.999419,19.424993 c 0,4.959741 -1.749501,8.097321 -5.464669,9.934359 A 3.168176,3.1682124 0 0 1 92.53109,89.202689 L 82.815642,80.62576 C 81.071395,79.081038 79.552947,77.487304 75.30304,77.487304 H 52.700467 c -4.249907,0 -5.771857,1.593734 -7.512604,3.137581 l -9.718947,8.578679 a 3.1506723,3.1507085 0 0 1 -2.100448,0.796429 3.1427956,3.1428317 0 0 1 -1.402051,-0.328199 c -3.716042,-1.837913 -5.466416,-4.974618 -5.466416,-9.930858 0,-6.444074 2.953755,-17.066337 8.378162,-30.803426 C 37.446837,42.427796 42.040693,40 46.425377,40 c 2.049687,0 4.055616,0.531244 5.790237,1.42482 7.57474,3.903378 16.155947,3.821985 23.574904,0 C 77.519012,40.531244 79.52494,40 81.575503,40 c 4.383809,0 8.98029,2.427796 11.548964,8.93751 C 98.546247,62.671973 101.5,73.294237 101.5,79.737435 Z M 54.625877,60.312442 a 7.8110417,7.8111314 0 0 0 -7.811917,-7.812881 7.8110417,7.8111314 0 0 0 -7.812792,7.812881 7.8110417,7.8111314 0 0 0 7.812792,7.812882 7.8110417,7.8111314 0 0 0 7.811917,-7.812882 z m 12.500292,-7.812881 a 3.1244167,3.1244526 0 0 0 -3.126166,-3.124453 3.1244167,3.1244526 0 0 0 -3.124417,3.124453 3.1244167,3.1244526 0 0 0 3.124417,3.125327 3.1244167,3.1244526 0 0 0 3.124416,-3.124452 z m 10.937209,7.812881 c 0,-1.297041 -1.050224,-2.343777 -2.34375,-2.343777 a 2.3428748,2.3429018 0 0 0 -2.34375,2.343777 c 0,1.297042 1.050224,2.343777 2.34375,2.343777 a 2.3428748,2.3429018 0 0 0 2.34375,-2.343777 z m 5.468167,5.469105 c 0,-1.297041 -1.050224,-2.343777 -2.343751,-2.343777 a 2.3428748,2.3429018 0 0 0 -2.34375,2.343777 c 0,1.296167 1.050225,2.343777 2.34375,2.343777 a 2.3428748,2.3429018 0 0 0 2.343751,-2.343777 z m 0,-11.034481 c 0,-1.297042 -1.050224,-2.343777 -2.343751,-2.343777 a 2.3428748,2.3429018 0 0 0 -2.34375,2.343777 2.3446252,2.3446522 0 0 0 4.687501,0 z m 5.419157,5.566252 c 0,-1.297917 -1.050224,-2.344653 -2.343751,-2.344653 a 2.3428748,2.3429018 0 0 0 -2.34375,2.343777 c 0,1.297042 1.050224,2.343777 2.34375,2.343777 a 2.3428748,2.3429018 0 0 0 2.343751,-2.343777 z"
       inkscape:label="shadow2" />
    <path
       inkscape:label="shadow1"
       id="path241"
       d="m 51.499711,60.312442 a 4.6927512,4.6928052 0 0 1 -4.686626,4.687554 4.6927512,4.6928052 0 0 1 -4.6875,-4.687554 4.6927512,4.6928052 0 0 1 4.6875,-4.687554 4.6927512,4.6928052 0 0 1 4.686626,4.687554 z m 49.999419,19.424993 c 0,4.959741 -1.749501,8.097321 -5.464669,9.934359 A 3.168176,3.1682124 0 0 1 92.53109,89.202689 L 82.815642,80.62576 C 81.071395,79.081038 79.552947,77.487304 75.30304,77.487304 H 52.700467 c -4.249907,0 -5.771857,1.593734 -7.512604,3.137581 l -9.718947,8.578679 a 3.1506723,3.1507085 0 0 1 -2.100448,0.796429 3.1427956,3.1428317 0 0 1 -1.402051,-0.328199 c -3.716042,-1.837913 -5.466416,-4.974618 -5.466416,-9.930858 0,-6.444074 2.953755,-17.066337 8.378162,-30.803426 C 37.446837,42.427796 42.040693,40 46.425377,40 c 2.049687,0 4.055616,0.531244 5.790237,1.42482 7.57474,3.903378 16.155947,3.821985 23.574904,0 C 77.519012,40.531244 79.52494,40 81.575503,40 c 4.383809,0 8.98029,2.427796 11.548964,8.93751 C 98.546247,62.671973 101.5,73.294237 101.5,79.737435 Z M 54.625877,60.312442 a 7.8110417,7.8111314 0 0 0 -7.811917,-7.812881 7.8110417,7.8111314 0 0 0 -7.812792,7.812881 7.8110417,7.8111314 0 0 0 7.812792,7.812882 7.8110417,7.8111314 0 0 0 7.811917,-7.812882 z m 12.500292,-7.812881 a 3.1244167,3.1244526 0 0 0 -3.126166,-3.124453 3.1244167,3.1244526 0 0 0 -3.124417,3.124453 3.1244167,3.1244526 0 0 0 3.124417,3.125327 3.1244167,3.1244526 0 0 0 3.124416,-3.124452 z m 10.937209,7.812881 c 0,-1.297041 -1.050224,-2.343777 -2.34375,-2.343777 a 2.3428748,2.3429018 0 0 0 -2.34375,2.343777 c 0,1.297042 1.050224,2.343777 2.34375,2.343777 a 2.3428748,2.3429018 0 0 0 2.34375,-2.343777 z m 5.468167,5.469105 c 0,-1.297041 -1.050224,-2.343777 -2.343751,-2.343777 a 2.3428748,2.3429018 0 0 0 -2.34375,2.343777 c 0,1.296167 1.050225,2.343777 2.34375,2.343777 a 2.3428748,2.3429018 0 0 0 2.343751,-2.343777 z m 0,-11.034481 c 0,-1.297042 -1.050224,-2.343777 -2.343751,-2.343777 a 2.3428748,2.3429018 0 0 0 -2.34375,2.343777 2.3446252,2.3446522 0 0 0 4.687501,0 z m 5.419157,5.566252 c 0,-1.297917 -1.050224,-2.344653 -2.343751,-2.344653 a 2.3428748,2.3429018 0 0 0 -2.34375,2.343777 c 0,1.297042 1.050224,2.343777 2.34375,2.343777 a 2.3428748,2.3429018 0 0 0 2.343751,-2.343777 z"
       style="opacity:0.15;fill:#000000;fill-opacity:1;stroke-width:0.99999988"
       inkscape:connector-curvature="0" />
    <path
       inkscape:label="controller"
       inkscape:connector-curvature="0"
       style="fill:#eeeeee;stroke:#452981;stroke-width:0.99999988;stroke-opacity:0.26666667"
       d="m 51.499711,59.312442 a 4.6927512,4.6928052 0 0 1 -4.686626,4.687554 4.6927512,4.6928052 0 0 1 -4.6875,-4.687554 4.6927512,4.6928052 0 0 1 4.6875,-4.687554 4.6927512,4.6928052 0 0 1 4.686626,4.687554 z m 49.999419,19.424993 c 0,4.959741 -1.749501,8.097321 -5.464669,9.934359 A 3.168176,3.1682124 0 0 1 92.53109,88.202689 L 82.815642,79.62576 C 81.071395,78.081038 79.552947,76.487304 75.30304,76.487304 H 52.700467 c -4.249907,0 -5.771857,1.593734 -7.512604,3.137581 l -9.718947,8.578679 a 3.1506723,3.1507085 0 0 1 -2.100448,0.796429 3.1427956,3.1428317 0 0 1 -1.402051,-0.328199 c -3.716042,-1.837913 -5.466416,-4.974618 -5.466416,-9.930858 0,-6.444074 2.953755,-17.066337 8.378162,-30.803426 C 37.446837,41.427796 42.040693,39 46.425377,39 c 2.049687,0 4.055616,0.531244 5.790237,1.42482 7.57474,3.903378 16.155947,3.821985 23.574904,0 C 77.519012,39.531244 79.52494,39 81.575503,39 c 4.383809,0 8.98029,2.427796 11.548964,8.93751 C 98.546247,61.671973 101.5,72.294237 101.5,78.737435 Z M 54.625877,59.312442 a 7.8110417,7.8111314 0 0 0 -7.811917,-7.812881 7.8110417,7.8111314 0 0 0 -7.812792,7.812881 7.8110417,7.8111314 0 0 0 7.812792,7.812882 7.8110417,7.8111314 0 0 0 7.811917,-7.812882 z m 12.500292,-7.812881 a 3.1244167,3.1244526 0 0 0 -3.126166,-3.124453 3.1244167,3.1244526 0 0 0 -3.124417,3.124453 3.1244167,3.1244526 0 0 0 3.124417,3.125327 3.1244167,3.1244526 0 0 0 3.124416,-3.124452 z m 10.937209,7.812881 c 0,-1.297041 -1.050224,-2.343777 -2.34375,-2.343777 a 2.3428748,2.3429018 0 0 0 -2.34375,2.343777 c 0,1.297042 1.050224,2.343777 2.34375,2.343777 a 2.3428748,2.3429018 0 0 0 2.34375,-2.343777 z m 5.468167,5.469105 c 0,-1.297041 -1.050224,-2.343777 -2.343751,-2.343777 a 2.3428748,2.3429018 0 0 0 -2.34375,2.343777 c 0,1.296167 1.050225,2.343777 2.34375,2.343777 a 2.3428748,2.3429018 0 0 0 2.343751,-2.343777 z m 0,-11.034481 c 0,-1.297042 -1.050224,-2.343777 -2.343751,-2.343777 a 2.3428748,2.3429018 0 0 0 -2.34375,2.343777 2.3446252,2.3446522 0 0 0 4.687501,0 z m 5.419157,5.566252 c 0,-1.297917 -1.050224,-2.344653 -2.343751,-2.344653 a 2.3428748,2.3429018 0 0 0 -2.34375,2.343777 c 0,1.297042 1.050224,2.343777 2.34375,2.343777 a 2.3428748,2.3429018 0 0 0 2.343751,-2.343777 z"
       id="path840" />
  </g>
</svg>
