<?xml version="1.0" encoding="iso-8859-1"?>
<!-- Generator: Adobe Illustrator 18.1.1, SVG Export Plug-In . SVG Version: 6.00 Build 0)  -->
<svg version="1.1" id="Capa_1" xmlns="http://www.w3.org/2000/svg" xmlns:xlink="http://www.w3.org/1999/xlink" x="0px" y="0px"
	 viewBox="0 0 300.46 300.46" style="enable-background:new 0 0 300.46 300.46;" xml:space="preserve">
<g>
	<path style="fill:#010002;" d="M246.146,61.435c-3.416,0-6.744,0.326-9.981,0.946c-5.445,1.033-9.866-2.105-10.356-8.088
		c-0.114-1.42-0.234-2.752-0.348-3.981c-0.566-5.983-6.119-10.802-12.124-10.802H17.819c-6.005,0-11.988,4.748-13.108,10.65
		c-21.577,113.655,36.708,182.214,58.851,203.568c4.324,4.177,13.01,7.223,19.015,7.223h70.164c6.005,0,14.62-3.127,18.884-7.364
		c22.665-22.512,36.36-51.296,44.475-80.411c1.615-5.787,6.88-7.963,12.564-6.01c5.488,1.882,11.362,2.91,17.481,2.91
		c30.002,0,54.315-24.318,54.315-54.314C300.46,85.753,276.148,61.435,246.146,61.435z M246.146,145
		c-4.058,0-7.919-0.827-11.433-2.322c-5.532-2.355-8.561-10.851-8.023-16.839l2.127-23.508c0.544-5.988,4.194-13.163,8.773-14.56
		c2.709-0.827,5.575-1.267,8.55-1.267c16.154,0,29.246,13.092,29.246,29.246C275.391,131.909,262.3,145,246.146,145z"/>
</g>
<g>
</g>
<g>
</g>
<g>
</g>
<g>
</g>
<g>
</g>
<g>
</g>
<g>
</g>
<g>
</g>
<g>
</g>
<g>
</g>
<g>
</g>
<g>
</g>
<g>
</g>
<g>
</g>
<g>
</g>
</svg>
