<?xml version="1.0" encoding="UTF-8" standalone="no"?>
<svg width="32" height="32" viewBox="0 0 32 32">
	<path fill="#f5f7fa" d="M16 0c8.837 0 16 7.163 16 16s-7.163 16-16 16S0 24.837 0 16 7.163 0 16 0z"/>
	<path fill="#3eb87a" d="M25.119 11.166L15.978 26.96 6.837 11.166l9.137 4.754.206-.108 8.93-4.645zm1.182-1.129l-10.323 5.368-10.323-5.368 10.323 17.83z"/>
	<path fill="#3eb87a" d="M26.31 10.037H5.656l10.332 5.884z"/>
	<path fill="#3eb87a" d="M5.655 22.014h10.419l-5.016-9.29z"/>
	<path fill="#3eb87a" d="M15.977 15.467l5.058-2.641-5.001-8.697-5.076 8.725z"/>
	<path fill="#3eb87a" d="M20.94 12.696l-5.058 9.318h10.419z"/>
</svg>
