<?xml version="1.0" encoding="UTF-8"?>
<svg xmlns="http://www.w3.org/2000/svg" xmlns:xlink="http://www.w3.org/1999/xlink" version="1.1" width="24" height="24" viewBox="0 0 1264 1264">
	<path fill="#bebebe" d="M1252 569l-557 -557c-16,-16 -37,-24 -58,-24l-1 0c-21,0 -42,8 -58,24l-116 116 147 147c34,-12 73,-4 100,23 27,27 35,67 23,101l141 141c34,-12 74,-4 101,23 38,38 38,100 0,138 -38,38 -100,38 -138,0 -29,-29 -36,-71 -21,-106l-132 -132 0 347c9,5 18,11 26,18 38,38 38,100 0,138 -38,38 -100,38 -138,0 -38,-38 -38,-100 0,-138 9,-9 20,-17 32,-21l0 -350c-12,-5 -23,-12 -32,-21 -29,-29 -36,-71 -21,-107l-145 -145 -382 382c-16,16 -24,37 -24,58 0,21 8,42 24,58l557 557c16,16 37,24 58,24l1 0c21,0 42,-8 58,-24l555 -555c16,-16 24,-37 24,-58 0,-21 -8,-42 -24,-58z" fill-rule="evenodd" />
</svg>
