<?xml version="1.0" encoding="UTF-8" standalone="no"?>
<svg xmlns="http://www.w3.org/2000/svg" xmlns:xlink="http://www.w3.org/1999/xlink" version="1.1" width="24" height="24" viewBox="0 0 24 24">
  <path fill="#bebebe" d="m 8.499919,10.687483 a 1.3139704,1.3139855 0 0 1 -1.3122554,1.312516 1.3139704,1.3139855 0 0 1 -1.3125,-1.312516 1.3139704,1.3139855 0 0 1 1.3125,-1.3125144 1.3139704,1.3139855 0 0 1 1.3122554,1.3125144 z m 13.999837,5.438999 c 0,1.388727 -0.48986,2.26725 -1.530107,2.78162 a 0.88708929,0.88709948 0 0 1 -0.980943,-0.131349 l -2.720327,-2.40154 C 16.779992,15.942691 16.354826,15.496444 15.16485,15.496444 H 8.8361307 c -1.1899741,0 -1.61612,0.446247 -2.1035292,0.878524 l -2.7213052,2.40203 a 0.88218825,0.88219838 0 0 1 -0.5881254,0.223 0.87998278,0.87999288 0 0 1 -0.3925743,-0.0919 C 1.9901047,18.393486 1.5,17.515209 1.5,16.127463 1.5,14.323122 2.3270514,11.348888 3.8458854,7.5025027 4.5651141,5.6797829 5.8513938,5 7.0791054,5 c 0.5739124,0 1.1355725,0.1487483 1.6212665,0.3989495 2.1209271,1.092946 4.5236641,1.0701558 6.6009731,0 C 15.785324,5.1487483 16.346982,5 16.92114,5 18.148607,5 19.435622,5.6797829 20.154849,7.5025027 21.67295,11.348153 22.5,14.322386 22.5,16.126482 Z M 9.3752454,10.687483 a 2.1870916,2.1871167 0 0 0 -2.1873367,-2.187606 2.1870916,2.1871167 0 0 0 -2.187582,2.187606 2.1870916,2.1871167 0 0 0 2.187582,2.187608 2.1870916,2.1871167 0 0 0 2.1873367,-2.187608 z M 12.875326,8.499877 A 0.87483668,0.87484673 0 0 0 12.000001,7.6250302 0.87483668,0.87484673 0 0 0 11.125164,8.499877 0.87483668,0.87484673 0 0 0 12.000001,9.3749686 0.87483668,0.87484673 0 0 0 12.874837,8.500122 Z m 3.062419,2.187606 c 0,-0.363172 -0.294062,-0.656257 -0.656249,-0.656257 a 0.65600495,0.65601251 0 0 0 -0.65625,0.656257 c 0,0.363172 0.294062,0.656258 0.65625,0.656258 a 0.65600495,0.65601251 0 0 0 0.656249,-0.656258 z m 1.531089,1.531351 c 0,-0.363172 -0.294063,-0.656259 -0.656251,-0.656259 a 0.65600495,0.65601251 0 0 0 -0.65625,0.656259 c 0,0.362925 0.294063,0.656257 0.65625,0.656257 a 0.65600495,0.65601251 0 0 0 0.656251,-0.656257 z m 0,-3.0896556 c 0,-0.3631718 -0.294063,-0.6562576 -0.656251,-0.6562576 a 0.65600495,0.65601251 0 0 0 -0.65625,0.6562576 0.65649506,0.65650261 0 0 0 1.312501,0 z m 1.517363,1.5585506 c 0,-0.363418 -0.294063,-0.656503 -0.656251,-0.656503 a 0.65600495,0.65601251 0 0 0 -0.65625,0.656257 c 0,0.363172 0.294063,0.656258 0.65625,0.656258 a 0.65600495,0.65601251 0 0 0 0.656251,-0.656258 z" />
</svg>
