<svg xmlns="http://www.w3.org/2000/svg" viewBox="0 0 34 31" width="24" height="24"><path d="M31 31H3a3 3 0 0 1-3-3V3a3 3 0 0 1 3-3h28a3 3 0 0 1 3 3v25a3 3 0 0 1-3 3zM4 24.5A1.5 1.5 0 0 0 5.5 26H11v-2H6.5a.5.5 0 0 1-.5-.5v-3a.5.5 0 0 1 .5-.5H11v-2H5.5A1.5 1.5 0 0 0 4 19.5zm8-18A1.5 1.5 0 0 0 10.5 5h-5A1.5 1.5 0 0 0 4 6.5v5A1.5 1.5 0 0 0 5.5 13H9v-2H6.5a.5.5 0 0 1-.5-.5v-3a.5.5 0 0 1 .5-.5h3a.5.5 0 0 1 .5.5v6a.5.5 0 0 1-.5.5H4v2h6.5a1.5 1.5 0 0 0 1.5-1.5zm0 13v5a1.5 1.5 0 0 0 1.5 1.5h5a1.5 1.5 0 0 0 1.5-1.5v-5a1.5 1.5 0 0 0-1.5-1.5h-5a1.5 1.5 0 0 0-1.5 1.5zm9-13A1.5 1.5 0 0 0 19.5 5h-5A1.5 1.5 0 0 0 13 6.5v5a1.5 1.5 0 0 0 1.5 1.5h5a1.5 1.5 0 0 0 1.5-1.5zm9 0A1.5 1.5 0 0 0 28.5 5h-5A1.5 1.5 0 0 0 22 6.5v5a1.5 1.5 0 0 0 1.5 1.5H27v-2h-2.5a.5.5 0 0 1-.5-.5v-3a.5.5 0 0 1 .5-.5h3a.5.5 0 0 1 .5.5v6a.5.5 0 0 1-.5.5H22v2h6.5a1.5 1.5 0 0 0 1.5-1.5zM30 18h-7.5a1.5 1.5 0 0 0-1.5 1.5V26h2v-5.5a.5.5 0 0 1 .5-.5h1v6h2v-6H28v6h2zm-11.5-7h-3a.5.5 0 0 1-.5-.5v-3a.5.5 0 0 1 .5-.5h3a.5.5 0 0 1 .5.5v3a.5.5 0 0 1-.5.5zm-4 9h3a.5.5 0 0 1 .5.5v3a.5.5 0 0 1-.5.5h-3a.5.5 0 0 1-.5-.5v-3a.5.5 0 0 1 .5-.5z" fill="#bebebe"/></svg>