<?xml version="1.0" encoding="UTF-8" standalone="no"?>
<svg xmlns="http://www.w3.org/2000/svg" width="24" height="24">
	<path fill="#bebebe" d="m 17.825118,19.129482 c -3.270643,0 1.759382,-18.51860792 1.759382,-18.51860792 h -3.360868 c 0,0 -1.375927,4.35333912 -2.278172,9.20291362 H 11.035715 C 11.125939,8.8213167 11.148496,7.8062896 11.148496,6.7912623 11.013158,-1.1710626 6.3440327,0.31764393 4.2463096,2.144693 A 11.616422,11.616422 0 0 0 0.56965541,9.7235629 L 2.1260305,9.7010071 c 0,0 1.0601397,-4.7367939 4.3082268,-4.7367939 3.2706435,3e-7 -1.7593805,18.4960518 -1.7593805,18.4960518 h 3.360868 c 0,0 1.7368243,-4.939798 2.5939582,-10.488616 h 2.774408 c -0.157894,1.421039 -0.203004,2.99997 -0.180449,4.466121 0.135338,7.984881 4.781907,6.270613 6.857072,4.443564 2.097724,-1.827049 3.654098,-5.684153 3.631543,-7.556313 l -1.601487,0.02255 c 0,0.135336 -1.015029,4.781906 -4.285672,4.781906 z" />
</svg>